/* XPM */
static char *back[] = {
/* columns rows colors chars-per-pixel */
"50 50 43 1 ",
"  c #3D006D",
". c #3F0073",
"X c #400077",
"o c #410079",
"O c #460182",
"+ c #490386",
"@ c #4C0C84",
"# c #4C028B",
"$ c #4E088D",
"% c #50098E",
"& c #53128B",
"* c #4E0091",
"= c #510196",
"- c #520A93",
"; c #53019B",
": c #58079F",
"> c #560C99",
", c #590D9E",
"< c #63229C",
"1 c #5705A0",
"2 c #5907A2",
"3 c #5B0CA3",
"4 c #5D0CA8",
"5 c #5D11A4",
"6 c #600FAA",
"7 c #6012A7",
"8 c #6213AC",
"9 c #6515B1",
"0 c #6626A0",
"q c #6C2BA6",
"w c #702FAA",
"e c #7130AB",
"r c #7D3DB8",
"t c #803FBA",
"y c #8645C1",
"u c #8B4AC6",
"i c #8D4DC9",
"p c #9757D3",
"a c #9A59D6",
"s c #9E5EDB",
"d c #A060DD",
"f c #AE6DEB",
"g c #B474F2",
/* pixels */
"XXoXoXoooifO..ooo55.o. .ooooooooXX,8oooXoX o9#XoXX",
"-+XoooXo.qtOooooo--o..Oo.oooooo.oo$-oooXO+$$>OXo+-",
"9>oooooo....ooooo..o..;+ooo.o.oooXXXoooo+185XXoX>9",
"OooXO=OXO.O5-.oooooo..OOoooo. ..oooXooo*:8$oooXXo+",
"ooooO;Oo.OO3-...o+O.oo.ooo...oO.ooooXO##=,OooO+Ooo",
"o.o.O;Oo.O....O..==o.oooo.. =;;OXoXoX-9OXXooX#;;+o",
"ooo*;8+...O.O.**=4,oooooo.O*==OooXooXO+oXoXXoOOOOX",
".o.*>5+oO...OO=;14>.oooo. o==*oooXooXoOooo&&oXXXXX",
"ooooooo...O.#;;29+o..oooo.ooooooooXoX+;ooodaooooXo",
"o..oo..OO..**142%Oooo...ooooo.ooXXoo#=;oXo<<ooo.Xo",
"o. ..O.O..+=;=5-..ooo...oooooooOOXoo;;;OooXXXoOooX",
"o.oo$9#.O#=OO.o......O9-oo.oo..33ooO=48OXooXX,7ooo",
"ooo.+-+.#*;.O.....oo..$+.+##O.o$$ooo#$>ooooXo#-oXo",
"ooooo..O;;;... ..ooo....o;;;O.ooXooXXXXXXooooooooo",
"oooooo.o;45O.. .oo...o.#;;28+oo.ooXoXXoooooXo>4oXX",
"o..ooo+*22>.....o....o.*;1,>OoooXoooXX.XoXooo--ooo",
"o. .oo*19#.ooooooooooo.*19>..oooXooXo...XXoooXXo.o",
"oo.ooooO+Ooo.o*#.ooo.O585++.ooo.oooX O=oXoXoooXooo",
"oooooooo.oooo+1*o.oooO335O.o.o#oooooXO*oXoooXoOooo",
"ooo.ooooooo.#18,oooooo.o..ooo$9$Xooo;#XXooXoX*;ooo",
"o.o>-.oooo.oOO#Oooooooooo.oooO$oooXoOoXoX..ooOOooo",
"ooo5>oooo@&ooo.o.oooooooooooooo.XooooXoo. ooXXXooo",
"oooooooo.ufO.oo.ooooooo.oooooo.oooXoooXoXXX.Xooo..",
"oooooooo.<eo...o*o.o.oo+#ooo.o*OXooXooooXX=-XXXX0y",
"oooXoooo.o.....O;OOooo.#;ooo.O;OooXoXXoXoo5,.ooorg",
".oooo.ooooo O=;#o5,.ooo#=Ooo.o;OXXoX .oooooooooo++",
"ooo.o#oooo.O*4#Oo-*o.O+=2ooooO#oXooX..oooooooOOo.X",
"ooo o;Ooo.O;48O.o.o..O;48ooo=*..ooXoooooooooo*=ooo",
"ooo#=;OoooO;*OooooooooOOOoooo+=OXoooo-5OoooO=;=ooX",
"ooo=;1OooOO1$.ooooo.oo.oo..ooO;OXooXX$,ooooo**#ooo",
"ooo=29#oo#19-..oooooooo....ooO;Ooooooo.oooooXooXXo",
"oooOO#oo.#;#Oooooooo... ...ooO;Oo.-,oooooooooXoooX",
".oooXXoXo#*oXoXX.ooo.ooooooooO*O.X-3ooo.o.oooooooo",
"ooXoooooXXoXoX .oooo..999ooooooooXooooo   .ooooooo",
"oooooooooXoo..OOoooo$-$$%oooooo..oooo..+##ooooo.oo",
"ooooooXXoooo..**oooo>5oX.oo.oo.. ooo...;1;O.oooooo",
"Xoo;*Xoooooo.Xoooo.ooooooo. .oo.oooo O;899+.oo.o.o",
"Xoo=*XoXooooXXooowqooXoXoo. ooooooooO=3-->ooooo-+o",
"ooo=*XXooooooXoXospoooXXo.oOoooo.ooo=48O.ooooo+9-.",
"XO;;*.Xoooo8=Xooo@+oooXXo +-;#ooooooooOooooooooooo",
"oO*#+oooooo>$ooooXXooX....O;*+ooooooooooooooooXooo",
"ooooXoooooo.oooooXooXX . o+;OXo.ooooooooooooXooooo",
".qs%XXooooooooooooXXXo**#X+;O.o. ooo.ws@oooo.#;5$.",
".0a@XOOOOooooo..oXoXOO;11oO*O.X...XoXqp+.oooO=15$o",
"X.X o;;;;O.oo. .ooXX*;;48O.oXXXo. ..ooXoXXoO;65ooo",
"XOo+=5566$oooo..oXO*=;6-#ooo.+5o..+#ooooXX#-6-#ooo",
"ooo;28788#XoOOoooXO;115$.oooX$8o.o#=oooXXo=27+oo..",
"ooo85XX.OXo.-8OoXXO;58Ooooooo. .XXXXoXoooo77oooo. ",
"o.o$#XXXooXX+-O.XX+5>$XXooXo.. .XXXooooXoo##ooo...",
"oooo.XooXoooXXXXXX#9#.oooXoX   .XooooXooXooooo. .."
};
