/* XPM */
static char *chara_back[] = {
/* columns rows colors chars-per-pixel */
"50 50 178 2 ",
"   c #7F3420",
".  c #7B322F",
"X  c #6F283D",
"o  c #722931",
"O  c #742C39",
"+  c #793034",
"@  c #7A323B",
"#  c #3D006E",
"$  c #360072",
"%  c #3E0074",
"&  c #3D0079",
"*  c #4C0C5A",
"=  c #54125B",
"-  c #5A155F",
";  c #610A5B",
":  c #6E2B4D",
">  c #712545",
",  c #752A44",
"<  c #66225E",
"1  c #752F52",
"2  c #460865",
"3  c #48076F",
"4  c #4C0A6A",
"5  c #510D64",
"6  c #520E6D",
"7  c #5B1865",
"8  c #400077",
"9  c #480574",
"0  c #4C0B73",
"q  c #420079",
"w  c #48077C",
"e  c #460A79",
"r  c #4A0A79",
"t  c #560E77",
"y  c #4F117B",
"u  c #581772",
"i  c #51137D",
"p  c #6D1F6C",
"a  c #5F2072",
"s  c #672669",
"d  c #792D63",
"f  c #6C3268",
"g  c #763561",
"h  c #74346C",
"j  c #703374",
"k  c #71367C",
"l  c #763C7C",
"z  c #7B427D",
"x  c #96173D",
"c  c #843924",
"v  c #833934",
"b  c #BB222A",
"n  c #CC251F",
"m  c #CF281F",
"M  c #D0261D",
"N  c #D1281E",
"B  c #CC2621",
"V  c #8A4029",
"C  c #964D36",
"Z  c #934B3B",
"A  c #9B5335",
"S  c #9A543A",
"D  c #CD4D34",
"F  c #C34A3B",
"G  c #D04D33",
"H  c #981841",
"J  c #823C47",
"K  c #8D3B5E",
"L  c #8A4544",
"P  c #90484D",
"I  c #965345",
"U  c #AB4346",
"Y  c #A36045",
"T  c #A76758",
"R  c #B67559",
"E  c #854368",
"W  c #955463",
"Q  c #9A5862",
"!  c #824A7D",
"~  c #8A537F",
"^  c #A66560",
"/  c #CD8754",
"(  c #CE8C56",
")  c #D18F55",
"_  c #D39155",
"`  c #CD986B",
"'  c #D29F72",
"]  c #D5A26D",
"[  c #DBAA73",
"{  c #DEB17B",
"}  c #E8BC7F",
"|  c #3E008A",
" . c #460182",
".. c #490385",
"X. c #4B0982",
"o. c #45008C",
"O. c #4C028B",
"+. c #4F098D",
"@. c #560886",
"#. c #58068E",
"$. c #50098F",
"%. c #551783",
"&. c #54138B",
"*. c #4E0092",
"=. c #510295",
"-. c #520A93",
";. c #5D0B90",
":. c #53039A",
">. c #560C99",
",. c #590E9D",
"<. c #5B1A94",
"1. c #5B2486",
"2. c #672C88",
"3. c #782F8C",
"4. c #6C338B",
"5. c #743A8D",
"6. c #65259F",
"7. c #5702A0",
"8. c #5906A2",
"9. c #5B0CA3",
"0. c #5F0DA9",
"q. c #5D10A3",
"w. c #5F10A8",
"e. c #610EAC",
"r. c #6012A9",
"t. c #6828A3",
"y. c #6A2AA4",
"u. c #702FA9",
"i. c #7736B1",
"p. c #7C458A",
"a. c #823DB0",
"s. c #8A5384",
"d. c #90548A",
"f. c #8A489B",
"g. c #8C5798",
"h. c #925D9C",
"j. c #9C689F",
"k. c #AA7287",
"l. c #9556AC",
"z. c #8542BA",
"x. c #A069A3",
"c. c #AA76AE",
"v. c #8949C5",
"b. c #8B4AC6",
"n. c #9453D0",
"m. c #A161DE",
"M. c #A464E1",
"N. c #B88089",
"B. c #C59685",
"V. c #CDA086",
"C. c #D6A987",
"Z. c #DEB182",
"A. c #E2AD8D",
"S. c #E5B982",
"D. c #E5BB89",
"F. c #E8BE8A",
"G. c #EBB790",
"H. c #DBAFA7",
"J. c #D7ABB9",
"K. c #E3B7AC",
"L. c #E5BCBE",
"P. c #EEC487",
"I. c #EFC689",
"U. c #F0C686",
"Y. c #F0C78A",
"T. c #F3CB8A",
"R. c #F4CC90",
"E. c #ECC3A7",
"W. c #F7CFA0",
"Q. c #F9D2A7",
"!. c #FBD5B3",
"~. c #C48CDC",
"^. c #E2B6C3",
"/. c #E7BEC0",
"(. c #EDC4C3",
"). c #F5CEC4",
"_. c #F9D3C6",
"`. c #FED9C8",
/* pixels */
"8 q 8 q q q 8 8 w b.m.&.% 8 8 8 q q.9.q & 7 b M B B B B M H 9 & 8 q ,.r.w & q q q q # X.r.-.& 8 8 8 ",
"-...8 & 8 8 8 8 q y.i.X.& 8 q 8 q -.$.q & ; b M B B B B m H 9 & 8 q O.-.q 8 q q q ..O.-.-...8 8 X.-.",
"r.-.q q q q q q 8 q w q q q 8 q q q q q $ ; b N B B B B m H 9 & 8 q q & 8 8 q q O.:.q.,.q q 8 q >.r.",
"..X.q 8 ..O. .8 8 &  .,.$.8 q 8 8 8 8 8 & ; b m B B B n M x # & & q q & q 8 q O.:.r.>.q q 8 8 8  ...",
"8 8 q q ..:...& q & q ,.O.q 8 & q  . .q a K F G D D D D D U g h s q & q q ..+.*.:.>.X.& 8 q ....q 8 ",
"8 q q q ..:...& q 8 q q q q q q q =.*.w W / / ( / / / ( / / / / T r & q q -.q...8 w 8 8 q O.:.=...8 ",
"q 8 q O.>.9.O.8 8 q q q 8 q O.*.=.9.>.r Q _ ( ( ( ( ) ) ( ( ( _ T e & & q  ...q 8 8 8 % q  ..... .q ",
"q 8 q O.:.,...8 q q 8 q q ..*.7.8.9.*.r Q _ ( ( ( ( ( ( ( ( ( _ R h i q q q  .q & q <.<.q q 8 q 8 q ",
"q 8 8 q q q q q q q 8 q ..:.:.8.r.+.& 9 Q ) ( ( ( ( ( ( ( ( ( ( ( R h q q ..*. .% X.b.b.r & 8 q q 8 ",
"8 & 8 8 % & q q 8 8 q O.=.7.0.9.+.q & w Q ) ( ( ( ( ( ( ( ( ( ( R E u q ..:.=. .% w y.6.w 8 8 q 8 q ",
"8 # # 8 w ..q 8 q q ..*.:.=.q.$.8 8 & e Q ) ( ( ( ( ( ( ( ( ( _ ^ w & q :.7.:. .8 8 & 8 &  ...q 8 q ",
"8 8 8 8 O.q.+.8 q ..*. .q q w 8 # & & w Q ) ( ( ( ( ( ( ( ( ( _ T 0 &  .*.0.9...8 8 8 8 q >.,. .& q ",
"8 q q 8 X.-. .q ..:.*.q q q 8 # 8 8 & 9 k.G.A.Z.A.A.A.A.Z.A.A.G.N.y % q ..-.-.q 8 8 q 8 q +.+.q 8 8 ",
"8 q q 8 q q 8  .:.7.:.q 8 & # # 8 8 & r j./.).).).).).).).).).(.c.i % 8 q q q 8 q q 8 q q q q q q 8 ",
"q 8 8 8 8 8 8  .:.9.9. .# # # # 8 q % # y g./._.).).).)._._.(.h.%.w 8 8 8 q 8 q q q q 8 q >.,.q 8 q ",
"q 8 8 8 q q  .*.8.9.-.q 8 # # % q 8 8 # $ 4.L.`._._.).)._.`.(.p.$ 8 q 8 8 & % 8 8 8 q 8 q $.>.q 8 8 ",
"8 # # 8 q q O.:.r.-.q q q q q q 8 8 q 8 % 2.J.(.(.)._.)././.J.5.& 8 8 8 8 8 & 8 8 q 8 q q q q 8 q 8 ",
"q 8 8 8 q q  .....q & q q q O...q q q q % &.a.z.l.^.`./.h.4.4.%.& 8 8 8 8 q .. .8 q q 8 8 8 8 q q q ",
"8 q q & 8 q 8 8 8 8 q q q O.:.=.q 8 8 q & %.a.f.x.K.!.K.d.k k i & 8 8 q 9 ..*.q 8 q q 8 q  ...q 8 q ",
"8 q q q q q q 8 q q q q ..:.w.>.q 8 q 8 8 k V.P.G.I.R.G.P.D.Z.z q q 8  .*...q q q 8 q 8 q O.*.q 8 8 ",
"q 8 q >.-.q 8 q 8 8 & 8 q ..-...q q & e ! B.P.T.U.Y.P.Y.T.T.Y.B.~ e % q ..q 8 8 & # 8 8 8  . .q q 8 ",
"8 8 q >.-.q 8 q q &.<.w 8 8 8 8 q 8 r k B.T.Y.I.Y.P.Y.Y.Y.I.T.T.V.l y q q 8 q q 8 # 8 8 q 8 8 q 8 8 ",
"q 8 q  .w q 8 &  .i.n.&.% 8 8 q q & l V.P.Y.I.I.Y.Y.Y.P.P.Y.Y.Y.P.C.! & q q 8 q 8 8 8 8 q q 8 q 8 q ",
"8 q q 8 8 8 8 & w 6.u.w # 8 # q ..& z F.T.I.I.Y.Y.Y.P.Y.Y.Y.Y.Y.T.U.s.& q q q q 8 q -.$.q 8 8 q t.b.",
"q 8 8 8 q 8 q 8 8 8 8 8 8 8 8  .*.o.p.Z.T.P.P.Y.P.Y.Y.I.I.I.I.Y.T.F.~ & % % q 8 & w >.>.q & q q i.M.",
"q q 8 8 8 q q q q q & # q O.=.....:.g.D.U.Y.Y.Y.P.Y.P.Y.Y.I.Y.P.T.P.~ & # 8 8 q 8 q  . .q q q q X.&.",
"8 8 8 % q ..q q q 8 q  .:.9.=. .q *.f.P.T.Y.Y.P.Y.Y.P.I.Y.I.I.I.T.T.~ & # 8 8 8 8 8 8 8 q  ...q q % ",
"q q 8 8  .=...q 8 8  .=.9.9.X.8 & & l { Y.Y.P.Y.P.Y.Y.I.P.I.I.Y.P.{ ! % 8 q q q 8 q q q q *.*.q q q ",
"q q q ..=.:...8 q & q =.*.X.w 8 8 & s T [ Y.Y.Y.I.I.I.I.Y.Y.I.Y.[ R d & q +.,.X.8 8 8  .*.:.*. .8 q ",
"q q q =.7.8...& q  .O.8.O.8 & 8 8 & - C ` Y.Y.P.Y.I.Y.I.I.I.Y.T.' S - % % O.>. .8 q 8  .O.*...q 8 8 ",
"q 8 q *.9.q.O.8 q O.:.r.-.q & 8 q q 7 I ] Y.Y.P.I.I.Y.I.Y.I.I.Y.[ Y s q q q q 8 8 q 8 q q q q q q 8 ",
"q q q  ...O.w 8 q O.:.+. .q q q q % j ` } Y.Y.Y.I.I.I.I.I.Y.Y.Y.S.' s.>.q q & q q q q 8 8 8 8 q 8 q ",
"8 8 q & 8 8 8 8 q ....q q q 8 8 & % z D.T.P.I.I.I.I.I.I.I.I.I.I.T.I.h.>.q q q 8 % 8 8 8 8 q 8 q q 8 ",
"q q 8 8 q q q 8 q q q q q & # # & & z D.T.I.I.I.I.I.T.I.Y.I.Y.I.Y.P.s.& 8 8 8 # # # 8 q q 8 8 q q 8 ",
"q q q 8 q q q 8 q 8 q q 8 8  . .q & p.Z.T.T.I.I.I.I.P.T.I.I.I.I.U.P.~ & 8 8 %  .....q q 8 q q 8 8 q ",
"q q q q q q 8 q q q q 8 # 8 O.O.q $ z D.T.P.I.I.I.I.I.I.I.Y.I.I.U.F.~ & 8 8 8 =.8.:...q q q 8 q q 8 ",
"q 8 q *.O.q 8 q 8 q q 8 8 8 q q & & z D.T.I.Y.Y.I.I.P.P.T.U.Y.Y.T.P.s.% $ q :.e.r.0...8 8 q 8 q 8 q ",
"8 8 q *.*.q 8 q q q 8 8 8 8 q q  .t.c.E.Q.Q.T.T.T.T.T.T.T.T.T.W.Q.E.d.q  .:.9.>.>.-.X.8 q 8 q -...8 ",
"q q  .=.*.q q 8 8 q q  .q 8 q & X.b.~.(.L.H.Z.{ { C.C.C.Z.{ Z.H.L.(.g.q *.9.9.X.8 q 8 q 8 & ..q.-.& ",
"8 ..*.:.*.q & 8 8 8 X.,.-.8 8 8 & &.l.(.x.j I S P f 2.3.P S I h h./.h.& q .. .q 8 8 q 8 8 q w ..w 8 ",
"&  .o.O...q 8 q q 8  .-.+.8 8 q & % 2.j.2.2 o c o 2 | #.>   . * 1.j.5.& 8 & % q q q q q 8 8 8 & 8 q ",
"8 w X.w q 8 q 8 8 q q q q q 8 q 8 q 8 w & 5 + c O 4 o.#., c . = q w 8 q 8 w X.q 8 q 8 q q q q q q 8 ",
"8 y.b.<.& 8 & 8 8 q q 8 8 8 q q q 8 q 8 & 5 + c O 4 o.#., c . = % & q 8 8 u.b.&.& 8 8 q q ..:.,.O.8 ",
"8 t.b.&.8 q .... .q q q 8 8 8 & q 8 q q q 6 + c O 4 o.X., c . = % # 8 8 q t.b.&.% 8 8 q ..:.9.,.+.8 ",
"8 w w % q :.:.:.:...8 8 8 8 # % q q 8 q =.t @ c O 4 & 0 X c + = % # 8 8 q w w q q q q ..:.e.9. .8 8 ",
"q & &  .=.0.e.e.0.O.q q 8 8 8 8 8 q q *.:.@.@ c O 2 & 3 X V . = $ % ....q & & 8 8 q ..:.9.>.X.8 8 8 ",
"q 8 q :.9.q.q.q.9.+.8 q q X.8 8 8 8 ..:.;.p v c @ 4 & 9 @ V + : 5 & O.O.q q q q 8 q =.9.q...q q 8 8 ",
"q 8 w ,.,. .w  .q q 8 8 >.9.X.8 8 8 ..:.d Z C A L 4 & 0 , A C C 1 9  .q q q q q q q ,.,. .q q 8 # # ",
"8 8 q +...8 8 8 8 8 q q ..+.q q q & 4 d L A A A L 6 & 0 J A S A Z 1 6 8 8 8 q 8 8 q $.$.8 % 8 # 8 # ",
"q q q 8 q q 8 q 8 q q 8 q q q 8 q & p Z A A A A L 6 & 0 L A C C A C < & q q q q q 8 8 8 8 8 8 # 8 8 "
};
