/* XPM */
static char *chara_right[] = {
/* columns rows colors chars-per-pixel */
"50 50 202 2 ",
"   c #231E1C",
".  c #523C28",
"X  c #792D23",
"o  c #7C3024",
"O  c #7E342B",
"+  c #6C263E",
"@  c #79313D",
"#  c #3D006E",
"$  c #3E0074",
"%  c #3E0079",
"&  c #5B1947",
"*  c #58145B",
"=  c #621D4D",
"-  c #6B1D5D",
";  c #6E2741",
":  c #7B354C",
">  c #712B52",
",  c #702C54",
"<  c #46076C",
"1  c #590768",
"2  c #591566",
"3  c #400077",
"4  c #4C0471",
"5  c #4B0D74",
"6  c #420079",
"7  c #48077D",
"8  c #4A0A7A",
"9  c #4C137D",
"0  c #53157A",
"q  c #691764",
"w  c #701360",
"e  c #64236F",
"r  c #6A286A",
"t  c #742968",
"y  c #7B3966",
"u  c #78356A",
"i  c #652773",
"p  c #6E337D",
"a  c #554843",
"s  c #62524E",
"d  c #685853",
"f  c #A31B3A",
"g  c #B21E30",
"h  c #833926",
"j  c #813728",
"k  c #853C2D",
"l  c #853D32",
"z  c #B32030",
"x  c #D1261D",
"c  c #D1281E",
"v  c #CC2621",
"b  c #D1352A",
"n  c #C83A36",
"m  c #D13B35",
"M  c #8B4639",
"N  c #964E37",
"B  c #9A5236",
"V  c #98543D",
"C  c #BD483E",
"Z  c #CD4C34",
"A  c #D34638",
"S  c #853F45",
"D  c #823B66",
"F  c #8C4646",
"G  c #9C5B47",
"H  c #B35646",
"J  c #A4654E",
"K  c #A86848",
"L  c #B17049",
"P  c #A76858",
"I  c #AA6F5A",
"U  c #AB7057",
"Y  c #B57955",
"T  c #BD7C5A",
"R  c #8B506D",
"E  c #89517C",
"W  c #836E69",
"Q  c #91786D",
"!  c #A96D6B",
"~  c #B57D68",
"^  c #D44B46",
"/  c #D85B55",
"(  c #DB706C",
")  c #BC835D",
"_  c #9C847E",
"`  c #B98260",
"'  c #CD8754",
"]  c #CE8C55",
"[  c #C58259",
"{  c #CE8D5A",
"}  c #D18D56",
"|  c #D39259",
" . c #CE8E61",
".. c #CA9564",
"X. c #DE946F",
"o. c #E8986E",
"O. c #D9A872",
"+. c #DCA37C",
"@. c #ECAC71",
"#. c #E1B47F",
"$. c #3D0080",
"%. c #460182",
"&. c #490385",
"*. c #4B0A82",
"=. c #440089",
"-. c #4C028B",
";. c #4F098D",
":. c #510785",
">. c #50098F",
",. c #511283",
"<. c #54138C",
"1. c #4E0092",
"2. c #490097",
"3. c #510295",
"4. c #520A93",
"5. c #53029A",
"6. c #560B9A",
"7. c #590E9E",
"8. c #5A1992",
"9. c #642985",
"0. c #72398F",
"q. c #65259F",
"w. c #733196",
"e. c #5603A0",
"r. c #5906A2",
"t. c #5B0CA3",
"y. c #5F0DA9",
"u. c #5D10A3",
"i. c #5F10A8",
"p. c #610EAC",
"a. c #6112A9",
"s. c #6727A1",
"d. c #6A29A4",
"f. c #702FA9",
"g. c #7633B1",
"h. c #7A4293",
"j. c #863B94",
"k. c #844A8B",
"l. c #8D5682",
"z. c #8D588F",
"x. c #8D5899",
"c. c #965B98",
"v. c #A96F8C",
"b. c #AE7C82",
"n. c #A87899",
"m. c #8F4CA4",
"M. c #8342B6",
"N. c #9D68A3",
"B. c #AC7DA7",
"V. c #8948C5",
"C. c #8B4AC6",
"Z. c #9453D0",
"A. c #A161DE",
"S. c #A464E1",
"D. c #B48384",
"F. c #BD9489",
"G. c #B89B92",
"H. c #B585A9",
"J. c #C39783",
"K. c #C49A89",
"L. c #C68F91",
"P. c #E3908D",
"I. c #D6A58B",
"U. c #E2AD89",
"Y. c #E5B785",
"T. c #E8B79B",
"R. c #C89BB3",
"E. c #CCACA5",
"W. c #D7B4AC",
"Q. c #D7ABB9",
"!. c #DDB7B7",
"~. c #D6BAB0",
"^. c #E9B7A9",
"/. c #E5BEB8",
"(. c #ECC287",
"). c #EEC58A",
"_. c #F0C78A",
"`. c #F4CC89",
"'. c #F6D18A",
"]. c #ECC693",
"[. c #F8D697",
"{. c #DBC3BC",
"}. c #EAC5AA",
"|. c #F7D0A7",
" X c #E8C4B8",
".X c #F2C7B7",
"XX c #E9BFC2",
"oX c #DDCAC6",
"OX c #EDC5C1",
"+X c #F4CDC3",
"@X c #F6D0C6",
"#X c #FAD6CA",
"$X c #FCD5CA",
"%X c #ECDFDB",
"&X c #F8DCD5",
"*X c #FBEED1",
"=X c #FCEDD1",
"-X c #F8E3DF",
";X c #FBEDEB",
":X c #FFF7E2",
">X c #FFF8E3",
",X c #FEFEFC",
/* pixels */
"3 6 3 6 6 3 6 % 7 C.A.<.$ 3 6 3 6 u.u.6 3 3 # % 1 z c v v v v c f 4 6.u.%.% 6 6 6 % # 7 a.;.6 3 3 3 ",
"4.&.6 6 % 3 3 3 6 d.g.*.% 3 3 3 6 4.>.6 3 3 6 6 1 z c v v v v c f 4 1.4.7 % 6 6 6 -.;.;.6.&.3 3 *.4.",
"a.4.6 3 6 6 6 3 3 6 7 6 6 3 6 6 6 6 6 3 # 6 2.$.1 z c v v v v c f 4 % 6 3 3 3 6 -.5.t.7.6 6 % 6 6.a.",
"&.*.6 3 &.-.%.3 3 % %.7.>.3 3 6 3 3 3 6 3 % =.$.1 g x v v v v c f 4 % 3 6 % 6 -.7.p.4.7 3 3 3 6 6 ;.",
"3 3 6 6 &.3.&.% 6 % 6 7.;.6 3 % 6 %.%.6 6 5 t u D C Z Z Z Z Z Z H t 0 6 6 %.4.-.3.6.*.% 3 6 &.&.6 3 ",
"6 6 6 6 -.5.&.3 3 6 6 6 6 3 6 6 6 1.3.6 % e Y ] ' ' ] ' ' ' ' ] } [ D 3 3 4.u.&.6 6 6 3 6 -.5.3.-.3 ",
"3 3 6 -.6.t.-.3 3 6 6 3 3 6 -.1.3.t.7.6 % e T | } ] } } } } { U.Y. .y % 6 %.-.6 6 6 % 3 6 %.&.&.6 6 ",
"3 6 6 -.5.7.&.3 6 3 6 6 6 &.3.e.r.t.4.6 % e T | ] ] ' ] '  .+.}.}. .y % 6 6 %.6 3 6 8.8.6 6 3 3 6 6 ",
"6 3 6 6 6 6 6 6 6 6 3 6 -.5.5.r.i.-.6 6 % e T | ] } { { ] +. X@X^.| y % 6 -.1.%.$ *.C.C.7 3 6 6 6 3 ",
"6 $ $ 3 3 3 6 6 6 3 6 -.3.e.t.t.;.7 % % % e T } | U.T.^.T.^.@X$X}. .y 6 -.1.1.%.$ 7 d.q.6 % % 6 3 6 ",
"3 $ # 3 6 &.6 3 6 6 &.1.3.3.7.>.3 % % % % e T | I..X~.E. X#X+XE.J.{ y 6 1.e.5.%.$ 6 3 % 3 *.%.6 % 6 ",
"3 3 3 3 ;.t.;.6 6 -.1.%.7 6 7 3 # 3 % # # e T Y..X+XQ . G.$X Xd . ) y =.3.y.t.&.3 3 3 3 6 6.7.*.3 6 ",
"3 3 6 3 &.4.*.6 -.1.1.6 6 6 3 # # 3 6 3 # i I..X@X@XG.W !.&X+X_ Q I.E % &.3.4.6 3 6 3 6 6 ;.;.6 3 3 ",
"6 6 3 3 6 3 6 %.5.5.5.6 3 % # # 3 3 3 3 # i R.OX@X@X@X.X~.E.W. X+XQ.k.% 3 6 6 6 6 3 6 3 6 6 6 6 3 6 ",
"3 3 6 3 3 3 3 6 5.y.t.%.$ # # # 3 3 3 # # 8 9.H.@X@X#X!.s   . G.Q.0.8 3 3 3 3 3 3 6 6 3 6 6.7.6 3 3 ",
"6 3 3 3 6 6 %.3.r.t.>.6 $ # # 3 3 3 3 3 % % % n.#X#X#X/.W a d E.R.9 % 3 6 3 $ 3 6 3 6 3 6 4.4.6 3 6 ",
"3 $ # 3 6 6 -.5.i.4.6 6 6 6 6 6 6 3 6 3 % % 7 N.XXXXXX+X.XOX/./.H.9 % % 3 $ 3 3 3 6 3 6 3 6 6 6 3 6 ",
"3 3 3 3 6 6 %.&.&.6 3 3 6 6 -.&.6 3 3 6 % %.6.f.M.w.B.+X$XR.h.w.9.7 % % # 6 -.%.3 3 6 3 6 3 3 6 6 3 ",
"3 3 6 % 3 6 3 3 3 6 3 6 6 -.5.3.6 3 6 6 % ,.m.m.j.w v.+X$Xn.w r i 7 % 6 6 &.-.6 3 6 6 3 6 %.&.6 3 6 ",
"3 6 6 6 6 6 6 3 3 6 6 3 -.5.i.6.6 3 3 6 % p I.).+.m ( /..XP.n X.F.0 % 6 3.-.6 6 6 3 6 3 6 -.1.6 3 6 ",
"6 3 6 6.4.6 3 6 6 % $ 3 6 -.;.&.6 6 % 6 E J.(.'.@.A m / / ^ b o.Y.D.p % &.6 3 6 3 # 3 3 6 %.%.6 3 3 ",
"3 3 6 7.4.6 3 6 6 <.8.7 3 3 3 3 6 3 $ 8 b.`.(.[.Y.A m / / ^ b o.|.).E % 6 3 6 3 3 # 3 3 3 3 3 3 3 % ",
"6 3 6 6 7 % 6 % *.g.Z.,.$ 3 3 6 6 6 % 8 b.`._.=X$X^ ( -X;XP.m ^.:X).E % 6 6 3 6 3 3 6 3 6 6 6 6 $ 6 ",
"3 6 6 6 3 6 3 6 6 s.f.*.$ $ # 6 -.6 % 8 b.`._.=X%X/ L.,X,XW.^ /.:X].E % % 6 6 6 3 6 4.;.6 3 3 6 s.C.",
"6 6 3 3 3 6 3 6 3 3 3 3 3 3 3 7 1.-.6 8 ~ `._.=X%XP K.,X,X~.J {.:X].E % $ % 6 3 6 6 7.7.6 3 % 6 g.S.",
"6 3 3 3 3 3 6 3 6 6 % # 7 -.3.-.%.7.5.8 b.`._.=X%XU J.,X,X~.J {.:X].E % # $ 6 6 6 6 6 6 6 3 6 6 *.8.",
"3 6 3 3 6 &.6 6 3 3 6 %.3.t.3.%.6 4.-.8 R O.(.=X%XI K.,X,X~.J {.:X].E $ # 3 3 6 6 6 6 % 6 %.-.6 6 $ ",
"6 6 3 3 %.3.&.6 3 % %.3.t.t.%.3 6 % 6 8 > L Y.*X%XI K.,X,X~.J {.:X].E % 3 6 6 6 3 6 6 6 6 1.1.6 3 6 ",
"6 3 6 -.3.5.&.3 6 6 %.1.3.&.6 3 6 3 % 6 ; K #.=X%XI K.,X,X~.J {.:X].E % 6 -.7.*.3 6 3 %.1.5.1.6 3 6 ",
"6 6 6 3.e.r.&.3 6 6 -.r.-.3 3 6 3 6 % 8 R ..(.=X%XI K.,X,X~.J {.>X].E % 6 ;.6.%.3 6 6 6 -.1.-.6 3 3 ",
"3 3 6 1.7.a.;.% 6 -.5.a.4.6 3 6 3 3 % 8 ~ ].(.=X%XI K.,X,X~.J {.:X].E % 6 6 6 6 6 3 6 6 6 6 6 6 6 3 ",
"6 6 6 %.&.;.6 3 6 1.5.-.*.3 3 6 3 3 $ 8 b.`._.=X%XI K.,X,X~.J {.:X].c.6.6 % 3 3 6 6 6 6 6 3 3 3 6 6 ",
"3 6 6 3 3 3 3 3 6 &.-.6 6 3 3 3 6 3 % 8 b.`.(.}.E.G ` oXOXG.G K. X].c.4.6 6 6 3 3 3 3 3 3 6 6 3 6 6 ",
"6 3 6 3 3 6 6 6 6 6 6 6 6 3 # $ 3 3 % 8 b.`.(.` M k O F M l j l U Y.l.% 3 3 3 # # # 3 6 6 3 3 6 3 6 ",
"6 6 6 % 6 6 3 6 6 % 3 3 # 3 %.%.$ 3 % 8 b.`._.Y o o O X X X j X G #.l.% 3 $ $ %.%.&.6 6 3 6 6 6 6 3 ",
"3 6 6 6 6 6 6 3 6 6 3 6 3 3 -.-.% % $ 8 b.`.(.Y O O M V G M j X K Y.l.% 3 3 6 5.r.7.&.3 6 6 3 3 6 6 ",
"6 3 6 1.-.6 6 6 3 6 3 6 3 3 6 6 6 6 % 8 b.`.(.Y o O U #.#.) l X G #.l.% # %.5.a.a.a.&.3 6 6 6 3 6 6 ",
"3 3 6 1.1.6 3 3 6 6 3 3 3 3 3 3 8 f.d.*.n.|.|.~ O O Y '.'...l X J T.z.% &.4.t.6.6.4.%.3 3 3 6 4.*.3 ",
"6 6 %.1.1.6 6 6 6 3 6 %.6 6 6 3 *.C.C.,.H..X!.! O O U I.U.~ l X J /.x.6 1.t.t.%.3 6 6 6 3 % -.u.4.6 ",
"3 &.3.5.1.6 % 3 3 % *.7.4.3 3 3 6 <.;.*.H.!.h.> O O : w.w.u l X P  Xx.% 6 &.%.6 3 3 3 6 3 6 6 *.6 3 ",
"$ %.-.-.&.6 3 6 3 3 6 6.;.3 6 3 6 % $ 6 x.x.5 & j k q 2.2.2 O o F n.0.% 3 % $ $ 6 3 6 3 6 6 3 3 3 6 ",
"6 6 *.7 6 3 6 6 6 6 6 6 6 6 6 6 3 6 % 3 6 6 # = j h - 3.=.* O j ; 5 % 6 3 7 *.6 3 6 6 6 3 6 6 6 6 3 ",
"% d.C.8.% 3 % 3 3 6 6 3 3 3 3 6 6 3 6 6 3 6 -.- j j - 3.=.* O k ; 3 % 3 3 f.C.<.% 3 6 3 3 &.5.7.;.3 ",
"% d.C.<.$ %.&.&.%.6 6 6 6 3 3 3 6 3 6 6 7 -.3.- j j - -.6 * O h + < 6 3 6 d.C.<.$ 3 3 6 &.5.t.t.*.3 ",
"3 7 7 # 6 5.5.5.5.&.3 3 3 3 # $ 3 6 3 6 -.5.3.- j j = 6 6 * O k + < $ 3 6 7 7 6 6 6 6 &.5.y.t.%.3 3 ",
"3 3 % %.4.y.p.p.y.-.6 6 3 3 3 3 6 3 6 1.5.5.p.t j j = 3 % * O j + 3 &.&.6 % % 3 % 6 &.5.t.6.*.6 3 3 ",
"3 3 6 5.t.u.u.i.u.;.3 6 6 *.6 3 3 3 %.5.e.r.t.t k l ; 2 3 * l k @ 2 :.-.6 6 6 6 3 6 4.t.u.&.3 6 3 3 ",
"3 3 7 t.7.%.6 %.6 6 6 6 4.t.*.3 % % &.5.y.t.*., B N N S 2 2 N B N F q 6 6 6 6 6 6 6 7.7.%.6 6 6 3 # ",
"6 3 6 ;.;.3 3 3 3 3 6 6 &.4.6 6 6 3 -.t.6.;.3 > B B B B : S N B B B F = 8 % 6 6 3 6 ;.;.3 3 3 # 3 # ",
"3 6 3 6 % 3 3 3 3 6 6 3 6 $ 6 3 6 3 ;.a.;.% 3 , B B B B N V B B B B B F < % 6 6 % 6 3 3 3 6 % # 3 3 "
};
