/* XPM */
static char *chara_left[] = {
/* columns rows colors chars-per-pixel */
"50 50 201 2 ",
"   c #221D1B",
".  c #453833",
"X  c #7A2D23",
"o  c #7C3025",
"O  c #7E342A",
"+  c #6C263E",
"@  c #6C4927",
"#  c #3D006E",
"$  c #3D0074",
"%  c #3D0079",
"&  c #56145C",
"*  c #58145A",
"=  c #631D4E",
"-  c #671D57",
";  c #6B1D5E",
":  c #6B2444",
">  c #722B42",
",  c #7A3449",
"<  c #692452",
"1  c #7B3257",
"2  c #49086D",
"3  c #590768",
"4  c #57146B",
"5  c #400077",
"6  c #4B0572",
"7  c #4B0B77",
"8  c #420079",
"9  c #48067F",
"0  c #4E127D",
"q  c #551875",
"w  c #5A1D7A",
"e  c #6F1263",
"r  c #68276C",
"t  c #74286A",
"y  c #7A3866",
"u  c #78356A",
"i  c #652671",
"p  c #6B3377",
"a  c #6D317B",
"s  c #783F7D",
"d  c #544743",
"f  c #6C5B57",
"g  c #7F6D62",
"h  c #A31B3A",
"j  c #813724",
"k  c #833926",
"l  c #813728",
"z  c #853C2D",
"x  c #853D32",
"c  c #B32030",
"v  c #D1261D",
"b  c #D1281E",
"n  c #CC2621",
"m  c #CD3830",
"M  c #D13B35",
"N  c #8B4638",
"B  c #9A5236",
"V  c #BD483E",
"C  c #CD4C34",
"Z  c #D34638",
"A  c #823B46",
"S  c #863A63",
"D  c #8F494E",
"F  c #9C5B45",
"G  c #B95348",
"H  c #9E605B",
"J  c #A46549",
"K  c #A4644D",
"L  c #B67B44",
"P  c #A86C55",
"I  c #AA6F5A",
"U  c #B87B56",
"Y  c #8E5069",
"T  c #8E7873",
"R  c #AA7166",
"E  c #B47E6B",
"W  c #D44B45",
"Q  c #D85B55",
"!  c #CD6F59",
"~  c #DB706D",
"^  c #BC8157",
"/  c #9E857E",
"(  c #B68573",
")  c #CD8754",
"_  c #CE8C56",
"`  c #C38258",
"'  c #CF8E5A",
"]  c #D18D57",
"[  c #D49258",
"{  c #CD8E61",
"}  c #D49465",
"|  c #E7976E",
" . c #DCA878",
".. c #E7A675",
"X. c #E3B67E",
"o. c #3D0080",
"O. c #460182",
"+. c #490385",
"@. c #4B0A82",
"#. c #43008A",
"$. c #4B028B",
"%. c #4F088D",
"&. c #50098F",
"*. c #591984",
"=. c #54138C",
"-. c #4E0192",
";. c #490097",
":. c #510295",
">. c #520A93",
",. c #53029A",
"<. c #560C9A",
"1. c #590E9D",
"2. c #5A1992",
"3. c #651E93",
"4. c #622786",
"5. c #752686",
"6. c #6E3487",
"7. c #72378C",
"8. c #65259F",
"9. c #722696",
"0. c #7B3E97",
"q. c #5602A1",
"w. c #5906A2",
"e. c #5B0CA3",
"r. c #5E0DA9",
"t. c #5D10A3",
"y. c #5F10A8",
"u. c #610EAC",
"i. c #6517A7",
"p. c #6012A9",
"a. c #6727A1",
"s. c #6B2AA5",
"d. c #712FA8",
"f. c #7733B1",
"g. c #7A4594",
"h. c #863C94",
"j. c #986492",
"k. c #A17088",
"l. c #8541A1",
"z. c #8442B6",
"x. c #9E68A3",
"c. c #A778A4",
"v. c #8A49C5",
"b. c #8B4AC6",
"n. c #9453D0",
"m. c #A161DE",
"M. c #A464E1",
"N. c #BD9386",
"B. c #B787AC",
"V. c #C79782",
"C. c #CA9C85",
"Z. c #CC918F",
"A. c #C49A8B",
"S. c #C79C98",
"D. c #E38F8B",
"F. c #CEA185",
"G. c #D9AE86",
"H. c #DBAC8A",
"J. c #DCB088",
"K. c #E1AD8B",
"L. c #E5B981",
"P. c #E9B48E",
"I. c #E7B498",
"U. c #C397AF",
"Y. c #C598B1",
"T. c #CDADA5",
"R. c #D4B3AA",
"E. c #D6B9AC",
"W. c #D0A3B0",
"Q. c #D5A8B9",
"!. c #DBB8B3",
"~. c #EABAA7",
"^. c #E3BCB9",
"/. c #EAC38D",
"(. c #F5CC86",
"). c #F2CA8A",
"_. c #F6D08A",
"`. c #EFC992",
"'. c #EDC39E",
"]. c #F1CB94",
"[. c #FCDB97",
"{. c #DBC4BD",
"}. c #EEC6AC",
"|. c #F9D7A7",
" X c #EBC6BB",
".X c #F2C7B8",
"XX c #E8BEC1",
"oX c #DDC9C4",
"OX c #EFC8C2",
"+X c #F4CDC4",
"@X c #FAD3C6",
"#X c #F8D4C9",
"$X c #FBD4CA",
"%X c #ECDFDB",
"&X c #FADCD4",
"*X c #FEF0CA",
"=X c #FFF2D1",
"-X c #FBF0D9",
";X c #FAE8E6",
":X c #FEF5E3",
">X c #FEFEFE",
/* pixels */
"5 8 8 5 8 5 8 % 9 v.m.=.$ 5 5 5 9 e.1.9 5 5 # $ 3 c b n n n n n h 6 <.t.O.5 5 5 8 % # 9 p.%.5 5 8 5 ",
">.+.8 5 % 5 5 5 8 s.f.9 % 5 8 5 8 &.%.8 $ 5 9 % 3 c b n n n n b h 6 -.>.@.5 5 % 9 +.&.%.<.+.5 5 +.>.",
"p.>.8 8 8 8 5 5 5 8 8 9 9 5 5 8 5 5 8 5 # 8 ;.o.3 c v n n n n b h 6 % 8 % 5 5 9 $.,.r.<.8 8 8 8 <.p.",
"+.@.8 5 O.:.O.5 5 % 9 1.%.5 5 5 8 5 % 8 5 % #.o.3 c v n n v n b h 6 % 5 $ 5 8 $.1.y.%.@.8 5 8 8 @.O.",
"5 % 8 8 +.:.+.8 5 5 O.<.%.8 5 5 8 O.O.5 8 7 t u S V C C C C C C G t q 5 8 O.-.$.:.<.@.% 5 @.+.+.8 % ",
"5 8 8 8 +.,.+.5 8 8 8 8 8 8 8 8 8 :.:.8 % i U _ ) _ ) ) ) ) ) ] ] ` u 5 8 >.t.O.8 8 8 5 8 O.:.-.+.5 ",
"5 5 8 $.<.r.+.8 8 5 5 5 % 8 $.-.-.r.<.8 $ 4 ` [ ] _ _ _ _ _ ' K.P.' y % % @.+.@.5 8 5 5 8 9 O.O.@.$ ",
"8 5 8 $.,.1.+.5 5 8 8 8 8 +.:.q.w.e.>.8 q Y ` ] _ _ _ _ ) {  .}.}.{ y % 5 8 O.8 5 8 2.2.@.% % 8 5 8 ",
"5 5 5 8 8 8 8 8 5 5 8 8 +.:.,.w.t.&.% 6 Y ) _ ] _ ' ' ' _  ..X+X~.{ y % 8 +.-.O.$ 9 v.v.@.$ 8 5 8 8 ",
"8 5 5 5 5 % 8 8 8 5 8 $.:.q.r.e.&.9 % 8 r Y ` [ } K.I.I.I..X+X#X'.{ y 8 $.:.:.8 5 9 s.8.9 $ 5 8 5 8 ",
"5 $ # 5 8 @.8 5 8 8 +.:.:.:.1.&.5 5 % % $ i ^ L U ~.#X XT.T.+X#X~.' u o.:.q.,.O.5 5 % 5 5 9 O.8 5 8 ",
"5 5 5 5 %.e.%.% 8 $.$.9 8 9 9 5 # $ % $ # r ^ @ . T.&X!.d f  X$X~.{ y O.:.r.r.+.5 5 5 % 8 <.1.O.% 5 ",
"5 5 8 5 @.>.@.8 +.:.-.9 % 5 5 # 5 5 5 5 # i F./ T  X&X XT N.!.#X.XI.Y o.+.>.>.9 5 5 8 5 8 +.&.8 5 5 ",
"5 8 8 5 5 8 5 O.:.q.:.O.5 $ # # 5 5 5 5 # a Y. X XE.T.E. X@X+X+X+XQ.g.% % 5 5 5 5 5 5 8 8 9 O.8 5 8 ",
"8 8 5 5 8 8 5 O.,.r.e.O.# # # # 5 5 5 # 5 7 4.B.R.d   . T.$X+X#XW.7.0 5 5 5 5 5 8 5 8 5 8 >.<.9 5 8 ",
"5 5 5 5 5 8 O.-.w.e.>.8 5 # # 5 5 5 5 5 $ $ $ c.!.T d f T.$X#X$XU.0 $ 8 5 5 $ 5 8 8 8 5 8 >.>.8 5 8 ",
"5 $ # 5 8 8 $.1.r.%.8 % 8 8 8 8 5 8 5 8 5 8 9 x.^.^.^.+X+X+X^.^.B.0 # % % $ % 5 8 5 8 5 8 8 8 8 5 8 ",
"5 5 5 5 5 8 O.O.+.9 5 8 8 8 $.+.8 5 8 5 5 O.1.f.z.0.c.@X#XY.0.7.4.$ % $ # 9 $.8 5 8 8 8 5 5 5 5 8 5 ",
"5 8 8 5 5 8 5 % 5 5 8 8 8 $.<.:.8 8 8 5 5 O.<.d.h.e j.@X$XB.e t g.s w $ 8 +.$.8 5 8 5 8 8 O.O.8 5 8 ",
"8 5 8 8 8 8 8 8 5 8 8 8 +.,.r.<.8 5 5 8 5 5 0 k...M ~ ^..XD.m { /.J.Y 5 -.+.9 8 5 5 8 5 8 $.-.9 5 8 ",
"8 5 9 >.>.8 5 5 8 % $ 5 9 +.%.+.8 5 8 5 % w k.G...Z M Q Q W m | (.).F.j.=.O.5 5 5 $ 5 5 8 O.O.8 5 5 ",
"5 5 9 <.<.8 5 5 8 =.2.9 5 5 5 5 5 8 8 5 % a J.[.P.Z M Q Q M v | |.)._.F.w $ 8 8 5 # 5 5 5 5 5 5 5 % ",
"5 8 8 8 8 8 8 % 8 z.n.=.$ 5 5 5 8 5 5 5 % a J.*X$XW ~ ;X;XD.M ~.-X`.(.C.w $ 5 8 5 5 5 8 8 8 8 8 8 5 ",
"8 8 8 5 5 8 5 8 8 8.d.9 # 5 # 8 $.9 % 5 $ a J.=X$X! Z.>X>X!.W XX:X].(.A.w $ 5 % 5 8 &.&.8 5 5 8 a.v.",
"8 % 8 5 8 5 8 8 8 5 5 5 5 5 5 9 -.+.O.8 % a H.=X%XI A.>X>XE.K {.:X]._.C.w # 8 8 5 8 <.<.8 5 % 8 f.M.",
"5 5 5 8 8 5 8 5 5 8 % # 9 $.:.$.+.1.<.8 % a J.=X%XI N.>X>XE.K {.:X].(.F.q # 5 8 8 8 9 9 8 8 5 8 @.2.",
"8 8 5 # 8 +.9 % 5 5 8 O.:.e.:.O.8 >.%.% % p J.=X%XI A.>X>XE.K {.:X]. .R q $ $ % 8 5 5 5 8 O.+.8 5 % ",
"5 8 5 5 O.:.O.5 5 % O.:.e.e.O.5 8 5 % % % p J.=X%XI A.>X>XE.K {.:X`.^ O 2 % 9 % 5 8 5 % 9 -.-.8 5 5 ",
"8 8 8 +.:.,.O.8 8 % 9 :.>.+.8 5 5 % 5 5 % p G.=X%XI A.>X>XE.K {.:X`.^ D 2 -.1.@.% 8 5 O.:.,.:.9 5 5 ",
"8 8 8 -.q.w.+.5 8 O.+.w.$.5 8 8 8 8 8 5 % a G.=X%XP A.>X>XE.K {.:X`.} H q +.<.O.5 5 5 9 $.-.+.8 5 5 ",
"% 8 9 -.e.t.%.5 8 +.<.y.>.8 5 8 5 8 8 5 % a G.=X%XI A.>X>XE.K {.:X`.(.V.w % 8 8 5 % 8 8 8 8 8 5 5 8 ",
"8 5 8 O.+.+.9 5 8 -.,.%.O.8 5 8 8 8 5 8 $ a J.=X%XI A.>X>X!.K {.:X`.(.C.w % 5 8 5 8 8 5 5 5 8 8 8 5 ",
"8 8 5 5 5 5 5 8 8 +.$.8 8 5 5 5 8 8 5 8 $ p J.}.T.K ( oX+XN.F C.{.)._.F.w % % $ $ 5 5 5 5 5 8 5 8 8 ",
"5 8 8 8 5 5 8 5 8 8 8 8 8 % # # 5 8 8 5 # p G.` N O O N N x O , P L._.C.w $ % # # # 5 8 8 8 8 8 5 8 ",
"8 8 5 5 % 5 8 8 8 5 5 5 5 5 O.O.8 5 5 8 #.g.J.U X o O X X X O X F X._.A.w $ 5 O.O.+.9 5 8 8 5 8 5 8 ",
"5 5 % 9 9 8 5 5 8 8 8 8 5 5 $.$.8 5 5 8 ;.l.H.U O o N F F N l o J X._.F.w $ 8 :.w.,.+.5 5 5 8 5 8 5 ",
"8 5 8 -.$.8 5 8 8 5 5 8 5 5 8 8 % 5 8 8 8 6.K.U O O P X.X.^ z X F X.[.C.q 8 :.u.p.r.+.5 8 8 8 5 8 8 ",
"8 5 8 :.-.8 5 8 5 8 8 5 5 5 5 5 @.d.s.9 $ 6.R.E O O U _.[.} z X K '.|.S.3.-.e.<.<.>.@.% 5 5 O.>.+.5 ",
"5 8 O.-.-.8 % 8 8 5 8 9 9 5 5 5 @.v.v.O.# 7.!.E o o P H.H.E z X H W.+XQ.8.,.e.+.5 5 8 8 8 5 +.t.&.5 ",
"5 +.-.,.-.8 5 5 8 5 O.1.&.5 5 5 8 =.=.8 $ 7.XX( O O 1 7.8.u z l + s U.Q.*.O.@.8 5 5 5 8 5 5 8 @.9 8 ",
"$ O.+.+.+.8 5 5 8 % O.<.%.5 5 5 5 % $ 5 5 *.j.H O l ; ,.;.4 O k + 7 l.j.0 $ % 5 8 5 8 5 8 8 5 5 5 5 ",
"8 O.@.@.8 8 5 5 5 5 8 8 % 5 8 5 8 8 5 5 8 5 6 = l O ; :.+.& O k + 2 8 5 5 9 9 8 5 8 8 8 5 8 8 9 8 5 ",
"5 s.v.2.$ 5 % % 5 5 5 5 5 5 5 8 8 5 8 8 5 O.#.- l z ; :.#.* O l : 2 % % 5 d.v.=.% 5 8 5 5 +.:.1.%.5 ",
"5 a.v.=.% O.+.+.O.9 8 5 8 5 5 5 5 5 % 8 9 +.:.; j O - $.8 * O j + # % 5 5 d.v.=.$ 5 5 8 O.,.e.e.@.5 ",
"8 9 9 # 9 :.,.,.:.+.5 8 5 5 # 5 5 8 8 8 $.,.,.; l z = 5 8 & O z + 2 $ % 8 9 9 8 8 8 8 O.:.r.e.@.5 5 ",
"5 5 % O.:.r.u.u.u.%.5 5 5 5 5 5 8 5 8 -.:.q.u.; j O = 5 % * O z + 2 #.+.8 % $ 5 5 8 +.:.r.<.+.8 5 5 ",
"5 5 8 ,.e.e.t.r.e.%.5 5 9 @.5 5 8 5 +.,.q.e.3.S z z < 5 6 < z k > 5 #.$.8 8 8 8 5 9 :.r.e.@.% 5 5 5 ",
"5 5 9 e.<.9 9 8 9 8 5 % >.e.@.5 5 % +.:.r.9.D B B B < 2 , B B B A 6 % 9 8 8 5 8 5 8 1.e.O.8 8 5 5 # ",
"5 5 8 &.%.5 5 5 5 5 8 5 @.>.9 % 5 5 +.e.5.D D B B B A , D B B B A 7 % 8 8 8 5 8 5 8 %.$.5 5 5 5 # 5 ",
"8 8 8 5 % 5 5 5 5 5 5 8 8 5 5 8 5 5 %.i.S B B B B B B B B B B B , 6 8 8 5 8 5 8 5 8 5 8 5 8 % # # 5 "
};
