/* XPM */
static char *chara[] = {
/* columns rows colors chars-per-pixel */
"50 50 187 2 ",
"   c #161C1F",
".  c #161F26",
"X  c #2F3338",
"o  c #7F352B",
"O  c #762D37",
"+  c #782D3C",
"@  c #7B3230",
"#  c #7A313A",
"$  c #3C006C",
"%  c #3E0074",
"&  c #3E0079",
"*  c #4F0E5C",
"=  c #5A1954",
"-  c #621F5F",
";  c #6C2758",
":  c #480867",
">  c #4A096A",
",  c #520E63",
"<  c #581666",
"1  c #591969",
"2  c #410077",
"3  c #480773",
"4  c #4F0B74",
"5  c #410079",
"6  c #4B0C7B",
"7  c #500E78",
"8  c #5C1C74",
"9  c #650A61",
"0  c #621A76",
"q  c #5C207B",
"w  c #6A296C",
"e  c #7A2A69",
"r  c #76346B",
"t  c #642676",
"y  c #6E347C",
"u  c #70367E",
"i  c #675F60",
"p  c #6F6565",
"a  c #80362A",
"s  c #833A2D",
"d  c #D0271E",
"f  c #CC2621",
"g  c #CD2A25",
"h  c #D03530",
"j  c #8B4433",
"k  c #974E35",
"l  c #914B3B",
"z  c #995136",
"x  c #98533C",
"c  c #B44938",
"v  c #CD4832",
"b  c #D3433E",
"n  c #8E1545",
"m  c #941651",
"M  c #843E46",
"N  c #84355C",
"B  c #A33C4C",
"V  c #8C4442",
"C  c #9E5A42",
"Z  c #9F5E4A",
"A  c #AE5C55",
"S  c #A86544",
"D  c #B57C4C",
"F  c #A76952",
"G  c #A86A53",
"H  c #AE6C5C",
"J  c #B16E5C",
"K  c #B2705D",
"L  c #834B7E",
"P  c #A05F61",
"I  c #837573",
"U  c #D34640",
"Y  c #D75946",
"T  c #D85A53",
"R  c #DB6D4E",
"E  c #D27168",
"W  c #93817D",
"Q  c #B78776",
"!  c #B98774",
"~  c #CE8C56",
"^  c #D08E55",
"/  c #D29055",
"(  c #D69969",
")  c #D49C6E",
"_  c #E3847E",
"`  c #D2A06E",
"'  c #D2A070",
"]  c #DAA273",
"[  c #DCA976",
"{  c #DDAF79",
"}  c #DFB078",
"|  c #E1B37D",
" . c #3D0081",
".. c #460182",
"X. c #490385",
"o. c #4C0B83",
"O. c #4C028B",
"+. c #4E088D",
"@. c #55078C",
"#. c #581982",
"$. c #53128B",
"%. c #4E0091",
"&. c #510196",
"*. c #520A93",
"=. c #53019B",
"-. c #560C9A",
";. c #590898",
":. c #590D9D",
">. c #5E1597",
",. c #5E2284",
"<. c #632888",
"1. c #70368C",
"2. c #75378F",
"3. c #63229C",
"4. c #5907A2",
"5. c #5A09A3",
"6. c #5B0BA4",
"7. c #5E11A4",
"8. c #600FAA",
"9. c #6012A7",
"0. c #6213AC",
"q. c #6515B1",
"w. c #6A2AA4",
"e. c #7030AA",
"r. c #7E3AB5",
"t. c #7B4394",
"y. c #852792",
"u. c #803DB8",
"i. c #8E558C",
"p. c #864B93",
"a. c #895297",
"s. c #9C6981",
"d. c #AF7687",
"f. c #8742A4",
"g. c #8B48B8",
"h. c #9C62B3",
"j. c #8A49C5",
"k. c #9A5AD7",
"l. c #A060DD",
"z. c #AE6DEB",
"x. c #B474F2",
"c. c #AE9692",
"v. c #B383A9",
"b. c #C49685",
"n. c #CC938E",
"m. c #C59D8C",
"M. c #D4A687",
"N. c #D6AA88",
"B. c #E0AB8A",
"V. c #E6BA83",
"C. c #E9BE85",
"Z. c #E0B292",
"A. c #E6B59B",
"S. c #C89BB3",
"D. c #CFAAA5",
"F. c #D2B3AB",
"G. c #DCBAB2",
"H. c #EBBEB4",
"J. c #EEC487",
"K. c #EEC589",
"L. c #EEC88A",
"P. c #F0C787",
"I. c #F0C789",
"U. c #F2CA8A",
"Y. c #EDC998",
"T. c #F2CF9B",
"R. c #F3D29D",
"E. c #F4CCA8",
"W. c #F3D5A7",
"Q. c #F4D6A8",
"!. c #E9C2B4",
"~. c #EAC6BC",
"^. c #F2C6BB",
"/. c #C78EE8",
"(. c #DDC8C1",
"). c #EDC4C2",
"_. c #F4CDC4",
"`. c #E3D2CC",
"'. c #F6D0C6",
"]. c #F9D2C7",
"[. c #FAD3C9",
"{. c #E6D6D0",
"}. c #F9EAE6",
"|. c #F7F0EA",
" X c #FCF2ED",
".X c #FCF9F5",
"XX c #FFFFFC",
/* pixels */
"2 2 5 5 5 5 5 5 & j.x.6 & 5 2 5 5 7.7.2 & 2 $ n d f f f f f f 9 & 5 :.0.5 5 2 5 2 5 $ 5 q.+.5 5 2 2 ",
"*.X.2 5 5 2 5 2 5 w.r.5 5 5 5 5 5 *.+.5 % &  .n d f f f f f f 9 & 5 +.*.5 5 & 5 5 O.o.*.*...5 2 X.*.",
"q.-.2 5 5 5 5 5 5 5 2 5 5 2 5 5 2 & 5 5 % % 4.m d f f f f f f 9 & & 2 2 5 5 5 5 O.=.0.6.& 2 2 2 *.q.",
"..5 5 2 ..%...2 5 5 5 9.*.& 5 2 5 2 5 5 & &  .n d f f f f f f 9 & 5 5 5 5 5 5 %.:.q.+.5 5 2 2 & 5 o.",
"5 2 5 5 X.=...& 2 5 5 :.O.2 5 5 5 ....5 0 w w B v v v v v v v N t 2 5 2 5 ..+.&.&.:.5 5 5 X.X.X.5 5 ",
"5 5 5 5 X.=...2 5 5 5 5 5 2 5 2 2 &.%.5 H / ~ ~ ~ ~ ~ ~ ~ ~ ^ / K 3 5 5 5 *.0.5 2 5 5 5 5 O.=.=.O.5 ",
"5 2 5 O.=.0.X.2 2 5 5 5 5 5 O.&.%.6.:.& P ~ ~ ~ ~ ~ ~ ~ ~ ) H.( K 5 5 5 5 5 O.5 5 5 & 2 5 5 X...5 5 ",
"5 5 5 O.=.7.X.2 5 5 5 5 5 ..=.=.4.6.>.8 H ~ ~ ~ ~ ~ ~ ~ ( B.].] K 5 5 5 5 5 ..5 5 5 $.$.5 5 5 5 5 5 ",
"2 2 2 5 5 5 5 5 5 5 5 2 X.=.=.4.q.X.w ~ ~ ~ ~ ~ ~ ~ ~ ~ !._.].) J 2 5 5 2 X.=.5 5 5 l.k.2 5 5 5 5 5 ",
"5 & % 2 5 5 5 5 5 5 5 O.&.=.6.6.+.& 7 r H ~ ~ [ A.A.A.A.^.].'.] J 5 5 5 O.%.=.5 5 5 3.3.5 5 5 5 5 5 ",
"2 % $ 2 5 5 5 5 5 5 ..&.=.=.0.*.& & & & P ~ ~ m.'.'.'.].'.~.G.( J 5 5 5 =.=.=.5 5 5 & 2 5 5 5 5 5 5 ",
"2 2 2 2 +.q.X.5 5 O.=.5 5 5 5 2 $ & & % P D   W [._._._.[.c.. S K 5 5 ..=.5.q...5 5 5 5 5 :.0.5 5 5 ",
"5 2 5 2 ..*...5 O.%.=.5 5 & 2 $ $ 2 5 2 d.N.I D.'._._._.'.F.p N.b.5 5 5 O.+.*.5 2 5 5 5 5 +.+.5 5 5 ",
"5 5 5 2 5 2 5 ..=.=.=.5 2 2 $ % 5 5 2 & v.'.[.'._.~.~.!.'.'.[.'.S.5 5 5 2 2 5 2 2 2 5 2 5 5 5 5 5 5 ",
"5 2 5 5 5 5 2 5 =.6.0.5 % $ $ $ 5 5 2 $ 6 1._.'.G.X X X F.'.'.p.7 5 5 5 5 5 5 5 2 5 5 5 5 -.7.5 5 5 ",
"5 2 % 2 5 2 ..O.5.:.-.5 2 $ $ 2 5 5 2 $ % ,.).]._.p i p G.'._.1.& 2 5 2 2 & % 2 5 5 5 2 2 +.-.5 2 5 ",
"2 % $ 2 5 5 %.6.q.+.& & 2 5 5 2 5 5 2 5 & ,.)._._.'.[.]._._._.1.& 2 2 5 5 % $ 2 5 5 2 5 5 5 5 5 5 5 ",
"2 2 & 5 5 5 5 5 X.5 2 5 5 5 %.X.2 5 5 5 & o.r.u.g.)._._.t.<.<.6 5 5 5 2 $ 5 &.5 5 5 5 5 5 5 5 5 5 2 ",
"2 2 5 5 5 5 2 2 2 2 5 5 5 X.6.&.2 5 2 5 & 6 f.y.y.H.'.).e 9 y 6 & 5 5 5 5 X.%.5 5 5 2 5 5 5 ..5 2 5 ",
"5 5 5 5 5 5 2 2 5 5 5 5 O.=.0.:.2 2 5 5 & q L.R g ^.'._.h Y I.y & 5 5 5 =.O.2 5 5 2 5 5 2 %.&.5 5 5 ",
"2 5 5 -.*.5 5 5 2 5 2 2 5 X.O...5 5 & & i.b.U.R f T T Y h Y K.b.s.& 5 5 X.5 5 5 & $ 2 5 2 ....5 2 5 ",
"5 5 2 7.-.5 5 5 5 o.$.5 2 2 2 5 2 5 6 8 b.U.R.R f b U b g Y W.U.M.t 6 5 5 2 5 5 2 $ 2 5 5 2 2 2 5 5 ",
"2 5 2 5 5 5 5 5 5 j.z.5 2 2 5 5 & & y J.J.T.XX_ h }..X Xb E XXW.I.I.p % 5 5 5 2 2 2 2 2 5 5 2 2 & % ",
"5 5 5 5 5 5 5 5 5 3.e.5 2 % & 5 O.5 y K.P.R.XXn.c }.XX XA E XXW.U.U.y.& 5 5 5 5 2 5 *.+.2 5 5 & 3.j.",
"5 2 5 2 5 5 2 5 5 & & 2 % $ $ 5 =.X.1.I.J.T.XXm.x  XXX.XF ! XXW.J.U.L & 2 2 5 2 5 5 7.6.5 2 2 & r.x.",
"5 5 5 5 5 2 2 5 5 5 2 $ 5 &.=.O.5 5.p.I.K.T.XXm.x  XXX.XF ! XXW.P.U.L & $ $ 5 5 2 5 5 5 5 2 2 & 6 o.",
"5 5 5 % 5 O.5 5 5 5 5 5 &.5.&.X.5 %.2.U.J.R.XXm.C |.XX.XF ! XXW.J.U.L & % 2 2 5 5 5 5 5 2 ..X.5 & 5 ",
"2 5 2 $ 5 =...5 5 5 5 =.6.0.6 5 5 & y J.J.T.XXm.C |.XX.XF ! XXW.J.J.L & 2 5 5 5 5 2 5 5 5 %.=.5 & 5 ",
"5 5 5 O.=.=...5 5 2 5 =.%.5 5 5 5 5 1 S ] R.XXm.C |.XX.XF ! XXW.} S ; & 2 +.0.5 5 5 2 ..=.=.%.5 5 5 ",
"5 5 5 &.=.4...2 5 ..O.4.O.& 5 2 5 & < k ` R.XXm.C |.XX.XF ! XXW.} z - & 2 +.7.5 2 5 5 5 O.%.O.5 5 5 ",
"5 5 5 =.6.q.X.5 5 O.;.q.*.5 5 5 & & < z ` R.XXm.C |.XX.XG ! XXQ.[ z - & 5 2 2 5 5 5 5 5 2 5 & 5 2 5 ",
"5 5 5 5 ..+.5 5 & O.=.+...5 5 5 & % y ] V.R.XXm.C |.XX.XG Q XXQ.C.[ p.:.5 5 5 5 5 5 5 5 5 5 2 2 5 5 ",
"5 5 5 & 2 2 5 5 2 O.%.5 2 5 2 2 5 & y U.K.Y.{.Q x (.{.`.Z K {.T.L.U.a.7.5 5 5 2 2 2 2 5 2 5 2 5 5 5 ",
"5 2 5 2 2 5 5 5 5 2 5 5 5 2 $ $ 2 & u K.U.} s a s s s a a a s ' L.L.L & 2 2 5 $ $ $ 2 5 5 5 5 5 5 2 ",
"5 5 2 5 5 5 5 5 5 5 & 5 & % X.X.2 & y K.K.{ s a a a o o o o o ` U.U.L & 2 $ 2 X.X.O.5 2 5 5 2 5 5 5 ",
"5 5 5 5 5 & 5 2 2 5 2 5 2 $ %.O.& & y K.K.{ s a s j j j a o o ` U.U.L & 2 2 2 =.=.=.X.2 2 5 2 5 5 2 ",
"5 5 5 %.%.2 5 5 5 5 5 5 2 2 5 5 5 & y J.I.{ a o j | C.V.l o o ( U.U.p 5 % X.=.0.q.q.X.5 5 5 5 2 2 5 ",
"2 5 & =.%.5 5 2 5 5 5 5 2 2 2 5 & e.h.E.E.Z.s o j V.L.K.l o o M.E.W.p.& 5 &.8.-.*.*.5 5 5 2 5 *.X.2 ",
"5 5 5 &.O.5 5 5 5 5 5 5 5 5 5 5 5 k./.'.).F.a s j { C.V.l o o D._.].a.& =.6.0.5 5 5 5 5 5 5 ..q.*.2 ",
"2 X.=.=.%.5 5 5 5 2 5 0.*.2 5 2 5 X.p.[.a.0 s a o < #.>.# o a - 2.[.a.% 5 X.5 5 5 5 5 5 5 5 5 5 5 2 ",
"5 ..O.O.X.5 5 5 5 2 5 :.O.2 5 5 5 & ,.v.<.: o a @ : 5 =.# a o , #.v.1.& 5 5 2 5 5 5 5 2 5 2 5 5 5 5 ",
"5 5 5 & 5 5 5 5 5 5 5 2 2 5 5 2 5 2 & & & > a a @ 3 O.=.+ a a , % % & 5 5 5 5 5 5 5 5 5 5 5 5 5 5 2 ",
"& w.l.$.2 2 5 5 2 5 5 5 2 2 5 5 5 5 5 5 2 > a a @ 2 X.=.+ a a * % & 5 5 & e.k.o.5 2 5 5 & O.&.7.+.2 ",
"2 3.k.o.5 ..5 ....5 5 5 2 2 & 2 5 5 5 5 5 4 @ a o 2 X.%.O a a * % % 2 2 2 w.k.o.2 2 5 5 5 &.6.7.O.2 ",
"5 5 2 $ 2 =.=.=.=.X.5 5 5 2 $ % 5 5 2 5 &.@.s a o 3 2 2 O a a , & $ % & 5 5 5 5 5 2 2 ..=.8.9.5 2 2 ",
"2 5 5 X.&.0.8.8.8.+.5 5 5 2 2 2 5 5 5 %.=.@.@ a @ 2 2 2 O a a * $ % X.O.5 2 5 2 2 2 O.&.8.-.X.5 2 2 ",
"5 5 5 =.6.9.9.9.9.O.5 5 5 ..2 2 5 2 ..=.@.0 s s a 3 2 2 O s s = > 5 O.%.5 5 5 2 5 5 =.6.9.X.2 5 2 2 ",
"5 2 5 0.7.5 5 5 5 2 5 5 *.q.5 2 5 5 ..4.N z k k l 3 2 3 V z z z M & 5 5 5 5 5 5 5 5 7.7.5 5 5 5 $ $ ",
"2 5 5 +.O.5 5 2 5 5 5 2 X.*.5 5 2 5 4 e V z z z l 3 5 5 V z z z l ; < & 5 5 5 & 2 5 O.+.2 5 2 $ 2 % ",
"5 5 2 2 2 2 5 5 2 5 2 5 2 & 2 2 5 5 < z z z z z l 3 5 3 V z z z z z - 3 5 5 5 5 5 5 2 2 5 5 & $ 2 2 "
};
