/* XPM */
static char *dalek[] = {
/* columns rows colors chars-per-pixel */
"50 50 165 2 ",
"   c #000000",
".  c #060A05",
"X  c #05000A",
"o  c #0C0D0E",
"O  c #0E100D",
"+  c #0B0015",
"@  c #0E0F10",
"#  c #0E001B",
"$  c #120C19",
"%  c #16111C",
"&  c #171819",
"*  c #1B1C1D",
"=  c #140025",
"-  c #160029",
";  c #1B0033",
":  c #21023C",
">  c #212224",
",  c #292C2E",
"<  c #303236",
"1  c #393D3E",
"2  c #280047",
"3  c #200B47",
"4  c #2A024B",
"5  c #361F4E",
"6  c #2C0051",
"7  c #2F0058",
"8  c #300455",
"9  c #33025D",
"0  c #340D59",
"q  c #201350",
"w  c #3B1B5A",
"e  c #3C3E43",
"r  c #360263",
"t  c #380067",
"y  c #3B006B",
"u  c #3F0C6E",
"i  c #3F0074",
"p  c #3E0079",
"a  c #203372",
"s  c #77105D",
"d  c #423C4F",
"f  c #40076D",
"g  c #5B086B",
"h  c #401867",
"j  c #470772",
"k  c #400077",
"l  c #410079",
"z  c #450D78",
"x  c #461176",
"c  c #491577",
"v  c #4C1E77",
"b  c #4A1579",
"n  c #4E1D7C",
"m  c #472767",
"M  c #4D2C70",
"N  c #512B76",
"B  c #51237D",
"V  c #522A79",
"C  c #533574",
"Z  c #583C77",
"A  c #543178",
"S  c #3F4146",
"D  c #404247",
"F  c #43454A",
"G  c #474A4E",
"H  c #484A4F",
"J  c #4A4C52",
"K  c #4F5258",
"L  c #52555B",
"P  c #575A60",
"I  c #5A5D63",
"U  c #575168",
"Y  c #5C4975",
"T  c #5F5176",
"R  c #5E5078",
"E  c #73566D",
"W  c #625176",
"Q  c #63527D",
"!  c #655A7C",
"~  c #5D6166",
"^  c #5F636A",
"/  c #62666D",
"(  c #666077",
")  c #666A72",
"_  c #6B6E77",
"`  c #676278",
"'  c #68637A",
"]  c #6C6E78",
"[  c #6B7075",
"{  c #6E717A",
"}  c #71757D",
"|  c #737A7E",
" . c #EB3124",
".. c #8C1653",
"X. c #8C5D61",
"o. c #460081",
"O. c #490386",
"+. c #410C85",
"@. c #4D0C84",
"#. c #4C038B",
"$. c #4E088D",
"%. c #500A8D",
"&. c #4F1A81",
"*. c #53128B",
"=. c #4E0091",
"-. c #510196",
";. c #520A93",
":. c #53019B",
">. c #58079F",
",. c #560B99",
"<. c #590D9D",
"1. c #421590",
"2. c #591993",
"3. c #572F80",
"4. c #5B278D",
"5. c #583380",
"6. c #5C3B81",
"7. c #5C2790",
"8. c #603D86",
"9. c #63229C",
"0. c #5703A1",
"q. c #5906A2",
"w. c #5B0CA3",
"e. c #5D0CA8",
"r. c #5E11A5",
"t. c #600FAA",
"y. c #6012A7",
"u. c #6213AC",
"i. c #6615B2",
"p. c #4226A3",
"a. c #6827A1",
"s. c #662DA1",
"d. c #6B2AA4",
"f. c #702FAA",
"g. c #7D3DB8",
"h. c #644A84",
"j. c #685285",
"k. c #6B5A86",
"l. c #735996",
"z. c #6B6180",
"x. c #6E6B80",
"c. c #706786",
"v. c #716788",
"b. c #736A88",
"n. c #747781",
"m. c #757982",
"M. c #797E86",
"N. c #777489",
"B. c #78758B",
"V. c #7B7E89",
"C. c #796997",
"Z. c #776199",
"A. c #7E7B91",
"S. c #4264E5",
"D. c #803FBA",
"F. c #8A49C5",
"G. c #9A59D6",
"H. c #A060DD",
"J. c #AE6DEB",
"K. c #B474F2",
"L. c #7E838C",
"P. c #80858E",
"I. c #81888D",
"U. c #828790",
"Y. c #838891",
/* pixels */
"k k l l l l l k i F.K.O.l l l k l r.r.l k k y k l l l k l k l l l p <.u.z l l l k k y l i.$.k l k k ",
";.O.k k l k l l i d.g.l k l l l l ;.%.k i i l l l l l k l l l k l i #.;.l l l k l #.$.%.,.o.k k O.;.",
"i.,.l l l l l k l l i l l l k k l p l l i i :.#.k l k l l k k l l l l i l l l l #.:.u.r.k k l l ;.i.",
"o.l l k o.-.o.k l l l u.;.i l l l l i l l p p l l l l l y y y k l l l k l l l =.q.u.$.l l k p l l O.",
"k l l p o.:.o.l k l l <.$.i l l k o.o.k l j s g l l k i l l l l l l l l l O.$.=.-.<.l z l o.O.o.l l ",
"l l l l o.:.o.l l l l l l l l p l -.=.l l g  ...p l y y -.:.:.o.i l l l i ;.i.l k k l l l =.:.:.O.l ",
"l k l #.:.u.O.l l k l l p l #.=.=.8.Q W W W X.E R R W T ;.-.o.l i p l y = 6 $.l k l k l l l o.o.l l ",
"l l l #.,.r.O.k l l l l l o.:.,.2.z.} { { } { } } } } } 4.2.b b c n n h   3 1.l l l *.*.k l l l l l ",
"k l l l l l l l l l k k #.:.:.7.] M.P.L.P.L.L.I.L.L.L.L.{ _ _ _ { _ { I X a S.+.l l H.G.l k l l l l ",
"l i i k l l l l l l l #.=.,.6.k.M.L.L.L.L.L.L.L.L.L.P.L.M.n._ Z V V N m   q p.l l l a.9.l k l l l l ",
"k k y k l l l l l l o.-.:.-.' | P.L.L.P.P.L.P.P.P.L.L.L.P.M._ n l p l y + 2 l l p k i i k l o.l l l ",
"k k k i $.i.O.l k #.:.l l z ( n.P.P.P.L.P.P.P.P.P.P.P.P.P.M._ s.r.l l l =.w.u.O.k l l l i r.e.l l l ",
"l k k k o.;.o.l #.=.:.l l l ( { n.n.n.m.n.n.m.n.n.n.n.n.n.} ] 4.=.l l l #.=.;.l l l l k l $.%.l l l ",
"l l l l l k l o.:.:.:.l l z ` [ ] [ [ { ] ] [ { { [ { ] ] ] ] v i l l k k k k l l k l l l l l l l l ",
"l l l k l l k l :.e.u.l i y B.I.P.P.P.P.P.P.P.P.P.P.P.P.P.P.L.B l k k l k k l k l l k l l ,.r.l l l ",
"k k i k l l o.#.q.<.;.l i f h.T K K K L K K K K K K K K K U j.b k l l l k k i l k k l l i ;.,.l k l ",
"k i y k l l =.>.i.$.i p l l l 4                           = l l l l l l l i y k l l l k l l l i l l ",
"k k k k l l l o.O.l l l l z k.x.) ) ) ) ) ) ) ) ) ) ) ) ) _ b.n l l l i y l -.l k l l l l l l l k k ",
"k l l l l l k l k l l l l O.l.c.^ ^ ^ ^ ^ ^ ^ ^ ^ ^ ^ ^ ^ _ C.&.l l l l l O.=.l k l k l l l o.l l l ",
"k l l k l l l k l l l l #.:.i.u                           : i.O.l l l l :.#.l l l l l l k =.-.l k l ",
"l k l ,.;.l k l k k k l l O.l.! H L L J L L J L P J K P J U Z.&.p l k l O.l l l 9 = t p k l o.l l l ",
"l l l r.,.k l l l @.*.l p j B.V.{ L.L.] V.P.{ M.Y.{ m.Y.{ n.U.A z x x x x x x y :   r l l l l l l k ",
"l k k l l l l l l F.J.l l z B.m._ L.M._ M.V.] M.L.] n.L.{ } L.} _ _ ] ] ] ] ) o     9 l l l l l i i ",
"l l l l l k l l l 9.f.l k l B.V._ V.M._ M.L._ n.L.] n.L.{ } L.V.x.A A N A A A 4 -   z ;.l l l i 9.F.",
"l k l k l k l l l i i k i f N.m._ V.M._ M.M.{ n.V.] n.L.{ } L.L.v.l i p i l l l 4 X *.w.l l l i D.K.",
"l l l k l k k l l l p y o.>.' ] _ { { _ _ { { { ] _ ] } _ _ ] { ! k l l y i l l i i l l p l l l l @.",
"k k l k l #.l l l l l o.y 8 ] n.n.H J n.n._ e I n.m.~ e [ n.n.J d 6.b k i k k k l l l k k o.o.l l l ",
"l l k y l :.o.l l l l :.4 . n.L.L.& > L.Y.[   H Y.Y.J   [ P.P.> * I.5.p k l l l l l l l l =.-.l l l ",
"l l l #.-.:.o.l l k l :.A ^ L.L.L.} } P.L.L.{ M.P.L.M.{ L.P.L.} } P.A p k ;.u.l l l i o.-.:.-.l l l ",
"l l l -.:.q.o.l l o.#.0.V J M.L.L.^ / L.P.M.P { P.L.{ P M.L.P./ ^ P.h.3.k $.<.l l l l l =.=.#.l l l ",
"l l l :.w.u.#.k k #.0.i.0 . } P.L.& > L.P.[   J U.U.H   _ P.L.> & L.P.N.z l l p l l l l k k k l l l ",
"l l l l O.$.l k p #.:.#.M L M.P.L.) ) L.L.M.^ } P.P.} / M.P.L.) ) L.P.N.z l l l l l l l l l l k l l ",
"k k l i k k k l k #.=.l M I V.L.L._ { L.L.L.) n.L.I.n.) L.L.L.{ _ L.L.N.z l l i k i k k l l l l l l ",
"l l l l p l l k k l l l ; . { Y.L.* > L.L._   H U.Y.J   { L.L.> & L.L.N.l p l y y y k l l k l k k l ",
"l l l l l l l k l l l l m H M.L.L.I ~ L.L.M.K ) L.L.[ K M.L.L.~ I L.L.L.k.V i o.#.#.l l l l l k l l ",
"l l l l l l l l l k k l M / L.L.L.m.m.P.L.L.} L.L.L.L.n.L.L.L.M.m.L.L.L.m.Y f ,.:.:.o.l l k l l k l ",
"l l l =.=.l k l l l l o.; . } P.L.* > L.Y.[   J U.U.H   { L.L.> * L.L.{ . S A.i.i.i.O.k k l l k k k ",
"p l l -.=.l l l l l l l w e m.L.L.J K L.L.n.D / I.U./ S m.L.L.K J L.L.M.F ^ L.2.;.;.l l l k l ;.O.k ",
"k l l -.=.l l k l l l l C [ L.L.L.L.L.P.L.L.L.L.L.L.L.L.L.L.I.L.L.L.L.L.L.L.V.x i k l k l k O.u.;.k ",
"k O.:.:.=.i l l l k l i.0 O } P.L.> , L.P.{ o J U.U.K o { L.L., > L.L.n.@ G V.$ ; l k l l l l o.l l ",
"l o.=.#.O.l l l l l l w.w , m.Y.L.S F L.P.} < ~ Y.P.I < } P.P.F S L.P.m.< P L.1 5 l l l l l l l k l ",
"l l l i l k l l l k p i Z { V.L.L.L.P.L.L.L.P.L.L.L.P.P.L.L.L.P.L.L.L.L.P.L.L.I.j.l l l l l l l k k ",
"i d.H.*.i l l l k l y # $ & * * * * * * * * * * * * * * * * * * * * * * * * * * % # t l i #.-.r.%.k ",
"i a.G.@.l o.o.o.o.l y X                                                             9 l o.-.w.r.#.k ",
"p l k y z :.:.:.:.O.t X                                                             9 o.:.t.u.l l l ",
"l l l O.-.e.t.e.t.O.i 7 6 6 6 6 7 6 7 y t y z r 6 6 6 6 6 9 x 8 4 4 r t 7 7 6 6 7 6 o.-.e.;.O.l k l ",
"l l l :.w.r.y.y.u.#.l l l O.l l l l O.:.0.q.i.;.l l l l l #.u.l i l #.=.l l l l l l :.w.y.O.i l k k ",
"l l l e.r.l l l l l l l ;.i.o.l l l o.:.e.u.l l l l l l l k f k l l l l l l l l l l e.r.l l l l y y ",
"l l l $.$.k l l l l k k O.%.l l l l O.e.,.$.l l l l l l i y y k l l l l l l l l k l $.#.k l k i y k ",
"l k l k i l l k k l l l l i l l l i O.i.$.i i l l l l i y y y k l l l l l i l l p l k k l k k y k k "
};
