/* XPM */
static char *earth[] = {
/* columns rows colors chars-per-pixel */
"50 50 166 2 ",
"   c #010001",
".  c #04000A",
"X  c #0A000E",
"o  c #010A0B",
"O  c #041407",
"+  c #061806",
"@  c #071E0D",
"#  c #0B0012",
"$  c #050F17",
"%  c #0F001B",
"&  c #050F18",
"*  c #10001D",
"=  c #041016",
"-  c #051118",
";  c #0C2A0D",
":  c #0C2714",
">  c #112D16",
",  c #0F3512",
"<  c #150126",
"1  c #16012A",
"2  c #18002D",
"3  c #100C29",
"4  c #091524",
"5  c #0B1B2D",
"6  c #1B132D",
"7  c #1A0131",
"8  c #160A32",
"9  c #1F033A",
"0  c #1C0D39",
"q  c #141538",
"w  c #20003C",
"e  c #0B2023",
"r  c #182425",
"t  c #0E2037",
"y  c #18441F",
"u  c #1A541E",
"i  c #1F4E2A",
"p  c #1E5C26",
"a  c #1E5728",
"s  c #26772F",
"d  c #267B2E",
"f  c #277E30",
"g  c #1B1446",
"h  c #250343",
"j  c #260A44",
"k  c #27034C",
"l  c #240A4C",
"z  c #2C0152",
"x  c #2F065D",
"c  c #32005D",
"v  c #152B4D",
"b  c #143441",
"n  c #162E51",
"m  c #350063",
"M  c #380667",
"N  c #3C006C",
"B  c #391366",
"V  c #3F0073",
"C  c #1D3566",
"Z  c #1E396A",
"A  c #213F74",
"S  c #400077",
"D  c #410079",
"F  c #480D7F",
"G  c #256857",
"H  c #1D406F",
"J  c #1D4171",
"K  c #23437D",
"L  c #2B8934",
"P  c #2D8E3D",
"I  c #2E9136",
"U  c #2E9439",
"Y  c #33A13F",
"T  c #3AB846",
"R  c #3BBC49",
"E  c #3EBE5B",
"W  c #3CB563",
"Q  c #3DBB63",
"!  c #3DB66C",
"~  c #3DB869",
"^  c #3BAB70",
"/  c #3DAF7D",
"(  c #3DB374",
")  c #3DB179",
"_  c #3EC747",
"`  c #3EC846",
"'  c #3EC54B",
"]  c #3FC94D",
"[  c #3EC254",
"{  c #3FC15F",
"}  c #40CB4D",
"|  c #460181",
" . c #490386",
".. c #4B0B83",
"X. c #4C038B",
"o. c #4E088C",
"O. c #500A8D",
"+. c #53128B",
"@. c #4E0091",
"#. c #510196",
"$. c #520A93",
"%. c #53019B",
"&. c #58079F",
"*. c #560C99",
"=. c #590E9E",
"-. c #64239D",
";. c #5704A1",
":. c #5907A2",
">. c #5B0BA4",
",. c #5F0CAA",
"<. c #5E11A4",
"1. c #600FAA",
"2. c #6213AB",
"3. c #6615B1",
"4. c #6626A0",
"5. c #6827A1",
"6. c #6C2BA5",
"7. c #7130AB",
"8. c #7D3DB8",
"9. c #234680",
"0. c #244F8C",
"q. c #24508B",
"w. c #265390",
"e. c #28599A",
"r. c #2C6E83",
"t. c #2B6498",
"y. c #2A5EA3",
"u. c #2C62AA",
"i. c #2D62B4",
"p. c #2F6AB7",
"a. c #306CBB",
"s. c #367FBC",
"d. c #3579C4",
"f. c #3475CA",
"g. c #377AD4",
"h. c #387CD7",
"j. c #397EDB",
"k. c #3A7FE4",
"l. c #803FBA",
"z. c #8949C5",
"x. c #9757D3",
"c. c #9A59D6",
"v. c #9E5EDB",
"b. c #A060DD",
"n. c #B474F2",
"m. c #379885",
"M. c #3DAC83",
"N. c #3CA78E",
"B. c #3CA88B",
"V. c #3CA495",
"C. c #3CA19B",
"Z. c #3C9CA4",
"A. c #3B95AF",
"S. c #3B99AB",
"D. c #3B95B4",
"F. c #3C99B5",
"G. c #3B92BB",
"H. c #3B8FC2",
"J. c #3B8BCB",
"K. c #3B90C0",
"L. c #3A86D5",
"P. c #3C8BD3",
"I. c #3A83DC",
"U. c #3C88DB",
"Y. c #3A81E1",
"T. c #3C85E9",
/* pixels */
"S S D D D D D S V z.n. .V V | V | <.<.V | V N V V D V | V V V | V V >.2.D V V V | V N D 3.@.V | V V ",
"$. .S S D S D D V 6.8.| | V V V V $.o.| V V | D D D D D V | V V | V o.$.V | | V | X.o.O.*. .V V o.$.",
"3.*.S D D D D S | V V V V V | | V | V V V V %.X.V D D D D V | V | V V V V V | V  .;.,.<.V V | V *.3.",
"| D D D | #.| S V V | <.$.V V V V V V | V V V | D D D D V N V V V V | | | V V #.:.<.o.| | V V V V  .",
"S S D D | %.| D V V | <.@.V | V | | | V V | | V D D S V D D D D | V V V V | o.@.$.>...V V | | | | V ",
"D D D D | %.| D | V V | D V V V V #.%.V V V V V S S V M @.%.%. .V V | V V $.3. .V V D D V @.%.%.X.V ",
"D D D X.%.2. .D | V V V V | @.@.@.<.>.V h * * * * * % % < < 1 < 7 V V | V  .X.V V V V V D | X.X.| V ",
"S D D X.%.<. .S V V | V | | #.;.;.$...x * . 5 5 5 5 5 5 5 e ; 4 q m m m V D | V V | *.+.D V V V V V ",
"D D D D D D D D D D D S X.%.#.:.3.<       4 h.j.I.j.j.k.k.D._ G.i.    # V X.%.V D D b.c.D D D D | | ",
"D V V S D D D D D D D X.#.%.,...w K q.q.0.e.j.Y.Y.Y.D.M.M.N.Z.N.m.q.q.9.1 m %.| D V 4.4.V D D D V V ",
"D V N V D D D D D D | #.%.#.<.B - a.T.T.T.Y.Y.Y.Y.k.C.` E M.k.( Q P.P.s.: j X.V D D V V D D | D | V ",
"S D S S o.3. .D D X.#.D D V . n I.I.Y.Y.Y.Y.I.Y.Y.k.Z._ G.I.k.( ' [ [ [ ' p . N D D D D V <.<.D V V ",
"D D D S | $.| D X.@.#.D c h C e.Y.Y.Y.Y.Y.I.Y.Y.I.k.G.V.L.J.V.E ] ' ' ' [ U p 0 z D D V D o.$.D V | ",
"D S D S D S D | %.;.#.V 9 O d.U.L.Y.Y.Y.Y.Y.I.I.Y.k.I.I.I.S._ [ [ _ ' ' _ } R @ 7 V V | D D D V V V ",
"D D D D D D S D #.,.<.X a T E E E H.Y.Y.Y.J.E Z.k.k.S.{ E E ' A.D.[ ' ' _ _ ' s.9.. m | D *.<.D | | ",
"S S V S S D | X.>. .B y L ] ' Q M.J.Y.Y.j.P.M.G.I.D.M._ ' ' _ G.K.[ ' [ M.M.B.U.u.n l z V $.*.D V V ",
"D V N V D D @.;.3.j + R ' ' _ B.k.Y.Y.Y.I.Y.k.Y.L.[ _ ' [ ' [ G.H.[ _ Q L.k.k.I.Y.I.5 % D D D D D D ",
"D D V D D D D |  .7 + R _ ' D.J.k.Y.Y.Y.Y.J.! ! ~ _ / J.G.H.K./ ) H.) ' Q S.I.) ! ! : < D D D D S D ",
"D D D D D D D V c g b ^ ( ) L.k.k.I.Y.Y.Y.J.[ _ ' ! Z.k.Y.k.Y.N.B.Y.M._ _ M.D.{ ' ' u r z V | D D D ",
"D D D D V D D c   q.T.Y.Y.Y.Y.I.I.Y.I.k.Y.J.' _ { L.j.Y.k.Y.Y.Y.Y.k.M._ ' ' ' ' ' ' _ I   N #.D D S ",
"D V D *.$.D D c   q.T.I.Y.Y.Y.Y.k.I.I.k.Y.L.D.D.S.M./ ) / / / J.J.) C.S.[ ' _ _ ! D.F.r.  x  .D D D ",
"D D D <.*.D D m   q.T.j.Y.Y.Y.Y.Y.Y.k.I.I.k.k.L.K.[ _ _ _ _ _ Z.D.Q Z.H.~ E ' Q B.J.J.t.  z D D D S ",
"D D D D D D D c   q.T.k.Y.I.Y.Y.Y.k.I.Y.Y.k.k.N.' ' ' ' ' ' ' ' ! Y.M.E L.V._ J.S.' [ P   z D D V V ",
"D D D D D D D m   G N.B.G.Y.Y.Y.Y.Y.Y.Y.Y.Y.k.B.} ' ' [ ' ' ' ' E B.V.S.I.K.Z.I.H.C.{ I   z D S -.z.",
"D V D D D D D c   d _ ` N.L.Y.Y.k.I.Y.Y.I.Y.k.V.[ ' ' ' ' ' ' ' ' _ Z.I.Y.Y.k.Y.Y.Y.) P   z | V l.n.",
"D D D D D D D m   f } ' [ Q L.Y.I.k.I.Y.k.Y.I.I.J.[ _ _ ' ' ' ' ' ' [ Q I.Y.Y.Y.Y.Y.U.t.  z V D F  .",
"D D D V D X.D m   f ] ' ' [ V.G.k.Y.I.Y.I.Y.I.k.I.V.N.N.E ' ' ' ' ' ' E L.Y.Y.Y.Y.Y.Y.u.  c X.V V D ",
"D D V N D %.| c   s ' ' ' ' ` ) Y.I.k.Y.Y.Y.Y.Y.I.k.k.I.Q ' ' ' ' ' [ Q I.Y.I.Y.Y.Y.k.y.  N %.D D D ",
"D D D @.#.%.| V N 6 , R [ ' ' [ Q H.k.k.Y.k.I.Y.Y.Y.Y.I.Q ' ' ' ' _ V.J.I.Y.Y.Y.Y.I.v 0 | @.#.D D D ",
"D V D #.;.:.| V D 2 + R ' ' ' ' ' H.Y.Y.Y.Y.Y.Y.Y.Y.Y.I.Q ' ' ' [ / G.k.k.Y.Y.Y.Y.j.5 * @.@.X.D D D ",
"D D D #.:.3.X.D D 2 + R ' ' ' ' ' H.k.Y.Y.I.Y.Y.Y.Y.Y.I.Q ' ' ' ! I.Y.Y.I.Y.Y.Y.Y.k.5 * D D D D V D ",
"D D V | | o.D D D S M > f } _ ( G.L.Y.Y.Y.Y.Y.Y.Y.I.Y.I.Q ' _ C.H.k.C./ I.Y.Y.T.y.t l m D V D D D D ",
"V D D D V V V V | @.X.% i Y W C.k.Y.Y.Y.I.k.k.I.k.Y.Y.I.Q [ ! H.k.k.M.[ U.I.I.a.A # m D D D D D D S ",
"D D V D | V | V V V V | 9 o f.Y.Y.Y.Y.Y.Y.I.I.k.I.Y.Y.I.E ( Y.Y.Y.k./ { L.Y.j.= < N V D D D D D D S ",
"D D D D | V V | V V | | c h n 0.Y.Y.k.I.Y.Y.Y.I.Y.I.Y.I.D.G.Y.Y.I.k.G.A.T.e.v M V X.D D D D D D D D ",
"D D V | V | V V | V V V V N # v f.j.Y.I.Y.Y.Y.Y.Y.k.Y.Y.k.Y.Y.Y.Y.I.k.k.f.Z X @.;.%.| V D D V D S D ",
"V D | @.@.V | V D D D D S S V k o p.T.T.Y.Y.Y.Y.Y.Y.k.I.Y.Y.Y.Y.Y.T.T.f.o k #.2.3.3.X.V D D D V S D ",
"D D V #.#.V V V D D D D S D D m w C H H a.Y.Y.Y.I.Y.I.k.Y.Y.Y.Y.f.J J Z l D ,.$.$.*.D D D V | *. .D ",
"D D D #.@.V | | D D D D D D S D D %     w.j.g.g.g.g.g.g.g.g.g.g.y.    # #.,.2.| V V D D D V | 3.$.V ",
"V X.%.%.@.V V V D S D 2.$.S D D S N N N 8 - & & & & & & $ & $ $ 3 N N N D | D D D D D D D D D D D D ",
"D | X.X. .S S D D S D =. .D D D S D D D h 1 < < 1 2 7 w 7 2 1 1 h V V | D D D D V D D D D D V D S D ",
"D D D S D D D D D D D V D D D D D D D D D D V N S D X.%.| D D S V | V V D D D V D D D V D D D D D D ",
"V 6.b.+.S D D D S D D D D D D D S D D D D D @.@.X.S  .%.D D D S V V | V V 7.v...D D D V V X.%.<.o.V ",
"V 5.c...S | | | | D D D D D V S D D D D D X.%.;.&.D  .#.D D S S V V V V V 7.x.o.V D D | | #.>.<.o.S ",
"D V D V D %.%.#.#. .S D D S N V D S D D #.%.%.>.2.D D D D D S D V V V V V V D V D D V | %.,.<.D S D ",
"D D V X.#.2.1.1.1.o.S D S S V S D D D @.#.%.1.*. .D D D D  .=.D V V | @.| D V | D V X.#.,.*.X.D D S ",
"D D D #.:.<.2.2.2. .S D D  .D S D S | %.%.&.2.O.S D D D S ..2.D V D X.#.V D | V V | %.>.<.o.V V S S ",
"D D D 2.<.D D D D D D D $.3.D S D S | #.1.2.D D S D D D S S N S V D V D | V V D D V <.<.D D D D V N ",
"V D D $.X.V D D D D V D X.$.| V D V  .,.*.o.V V D D D D V V N V D D D V D D D D D D @.o.D V V V V V ",
"D D D V V D D D D D D D V V D V D D X.3.o.V D D D V D D N N N V D D D D D D V D D D V D D D D N V D "
};
