/* XPM */
static char *exit[] = {
/* columns rows colors chars-per-pixel */
"50 50 122 2 ",
"   c #010001",
".  c #03040C",
"X  c #090509",
"o  c #04090D",
"O  c #0B0C0B",
"+  c #040611",
"@  c #060916",
"#  c #070A1B",
"$  c #080B1E",
"%  c #0A141B",
"&  c #101111",
"*  c #090D24",
"=  c #0B0F28",
"-  c #140023",
";  c #19002E",
":  c #0D1A23",
">  c #0C112C",
",  c #1C0134",
"<  c #160E3B",
"1  c #0E1433",
"2  c #0F173A",
"3  c #141932",
"4  c #11163B",
"5  c #131A3C",
"6  c #22003D",
"7  c #10222D",
"8  c #132835",
"9  c #152B39",
"0  c #222424",
"q  c #190E42",
"w  c #191443",
"e  c #121A43",
"r  c #141D4A",
"t  c #151F51",
"y  c #250043",
"u  c #2A004C",
"i  c #2C0052",
"p  c #33005D",
"a  c #330B58",
"s  c #1F2147",
"d  c #183345",
"f  c #1C3C4F",
"g  c #172156",
"h  c #172258",
"j  c #19245E",
"k  c #222942",
"l  c #360065",
"z  c #380067",
"x  c #3A006A",
"c  c #3E0073",
"v  c #1A2561",
"b  c #1B2867",
"n  c #19276E",
"m  c #1C296A",
"M  c #1F2D74",
"N  c #202E77",
"B  c #202E78",
"V  c #400077",
"C  c #410079",
"Z  c #4B127C",
"A  c #3D4245",
"S  c #254C67",
"D  c #2D5D7E",
"F  c #414649",
"G  c #43484C",
"H  c #494E53",
"J  c #4D5257",
"K  c #414B6F",
"L  c #565C60",
"P  c #5D636A",
"I  c #460181",
"U  c #490386",
"Y  c #4C0B84",
"T  c #4C038B",
"R  c #4E098C",
"E  c #500A8D",
"W  c #53128B",
"Q  c #4E0091",
"!  c #510196",
"~  c #520A93",
"^  c #53019B",
"/  c #58079F",
"(  c #560C99",
")  c #590D9E",
"_  c #59129B",
"`  c #63219C",
"'  c #682F9C",
"]  c #5702A1",
"[  c #5907A2",
"{  c #5A0BA1",
"}  c #5D11A4",
"|  c #600FAA",
" . c #6012A7",
".. c #6213AB",
"X. c #6615B1",
"o. c #6827A1",
"O. c #6B2AA4",
"+. c #7D3DB8",
"@. c #3D4B8A",
"#. c #336A8F",
"$. c #336A90",
"%. c #4E5D96",
"&. c #556399",
"*. c #803FBA",
"=. c #8645C1",
"-. c #8B4AC7",
";. c #8D4DC9",
":. c #9A59D6",
">. c #A160DD",
",. c #A46CDB",
"<. c #AF6FED",
"1. c #B474F2",
"2. c #4188B7",
"3. c #428ABB",
"4. c #7783A0",
"5. c #848D95",
"6. c #8594BD",
"7. c #C0CEDB",
"8. c #C4D2E0",
"9. c #CAD8E4",
"0. c #CCDBEA",
"q. c #D3E2F2",
/* pixels */
"V V C C C C V C c ;.<.Y C C C C C } } C V V V ;     , I C C C C C C _ ..C C C C C c x C X.R c C c C ",
"~ U V C V C V C V O.+.C V C C C C ~ R C V z 6 k f f s u c c C C C C R ~ C C C C C T R ~ ( U c C R ~ ",
"X.( V C C C C C C C V C C C C C C C C C c p   S 3.3.S   l C C c C C V V C C C C T ] ..} c C C c ~ X.",
"I C C V I ! I V C C C  .~ C C C C C C C C l   S 3.3.S   p c c C C C C C C C C ! / ..R C C C C C C I ",
"c C C C I ^ I C C C C } C u i i i i i i i y   d D D d   6 u y u i i i i i x R Q ! ) I V V C I U C C ",
"C C C c I ^ I C C C C C 6                                                 a X.C V V C C C ! ^ ^ T C ",
"C C C T ^ ..U V C C x - 4 h h h h h h h h h h h h h h h h h h h h h h h j w , c C V V V C C U I C C ",
"C C C T ( } U C C x i   1 v j j v v j j j j j j j j j j j j j j j j j j v >   i x C W W C V C V C C ",
"C C C C C C C C C ;                                                             ; C <.:.C C C C C C ",
"C c c c C C C z , 4 r r r r e r r r e r r e r r r e r r r e e r r r r e e r e g 4 ; W ` V C C C C C ",
"C c c c C I C p   r B M B B B B N N N B N B B B B B B M B B B B M B B B B B B B r   p c C C I C C C ",
"C C C c R ..R p   r B B B B B B B B B B B B B B B B B B B B B B B B B B B B B B r   l C C _ } C C c ",
"C C V V I ~ I c i q 4 4 2 2 2 2 2 2 2 2 2 2 2 2 2 2 2 2 2 2 2 2 2 2 2 2 2 2 2 2 < 6 x C C R ~ C C C ",
"C C C C C V C I ] y                                                             , C C C C C C c C C ",
"C C C C C V V C ^ ) R . 1 m m m m m m m m m m >     > m m m m m m m m m m 1   p x C C C V ( } C c C ",
"C c c C C C I T [ ) Y   2 M g e r r e g e g N 1     1 M g r e g r r r t M 2 X x C C C C C ~ ~ C C C ",
"C c x c C C Q [ X.~ x   2 M o             @ M 1     1 M +             o M 2   x C C C C C C C C C V ",
"C C C C C C C I U C x   2 M . 8 #.% : #.: + M 1     1 M + 7 #.: % $.8 . M 2   x C C C C C C C C C C ",
"C C C C C C c C V V z   2 M   d 2.: 7 3.9 + M 1     1 M + 9 2.7 : 2.d   M 2   x C C C C V C I C V C ",
"C C C C c C C C C C x   2 M . d 2.: 7 2.9 o M 1     1 M o 9 2.7 : 2.d . m 2   x C C C C C Q ! C V C ",
"C C C ( ~ C C C V C x   2 M o @ 9 o + 9 + + M 1     2 M + + 9 o o 9 @ . M 4   x c c V V C C I C C C ",
"C c C } ( c C C C Y Z   2 M $ + o + + o + * M 1     1 M * + + + + + + * M 4   x V x V C C C V C V C ",
"c C C C C C C C c -.,.X 2 M M M M M M M M N B 1     1 M M M M M M M M M M 5   x C V V V C C C C V V ",
"C C C C C C C C c ` ' X 2 M 2 1 1 1 1 1 1 2 N 1     1 M 5 1 1 1 1 1 1 2 M 2   x C C ~ E C C C V ` =.",
"C C C C C C C C C V l   4 M . X & & & &   + N 1     1 M @     . .     o M 2 X z C C } { C C V V *.1.",
"C C C C C c C C C C x   4 M . H 8.7.7.7.A . N 1     1 M + * m m m m > . M 2   x C C C C C V V V C Y ",
"C c C V C T C C C C x   2 M   J q.q.q.q.G . M > X L K m + * N M M B = . M 2   x C C C C V I U C C C ",
"C C C x C ^ I C C C x   2 M . J 0.0.0.0.F . N 1 & 9.6.n o * M M M M = . M 1   x C C C C C Q ! C C C ",
"C C C Q ! ^ I C C C z . 2 M + O 0 0 0 0 O . N 1 & 9.6.n +   + + + +   o M 2   x C C C I ! ^ ! C C C ",
"C c C ^ ^ [ I C c I c   2 M 1 * * * * * * 1 N 1 O 5.4.&.5 * * = * * = 1 M 4   x C C C C Q Q T V C C ",
"C C C Q [ X.R c C Q T . 2 M M M M M M M N N N 1     P q.@.M N N M B M M N 2 X z C C C C C V V C C C ",
"C C c I I R C C c T T   2 M = $ * $ # * $ > N 1     9 %.3 $ $ $ $ $ $ > M 2   x C C C C V C C V C C ",
"c C C C c C C I c Q I   4 M o . @ @ @ @ . + M 1     1 M + . @ + @ @ . o M 4   z V V V C V V C C V C ",
"C C C C C C C c c c x   2 M . = M M M M * + M 1     1 M + * M M M M = . M 4   p x x V C C C C V C C ",
"C C c C c C C c I c x   2 M . = M M M M * + M 1     1 M + * M M M M = + m 4   C T U C V C C C V C V ",
"C C c I C I c I c I x . 2 M . = m m m m * + M 1     1 M + * m b m b = . N 4 . T / / I C V V C C C V ",
"C c I Q Q c c c C C x X 2 M .             + M 1     1 M @             o M 2   _ X...U V C C V V C C ",
"C C c ! Q C I c C c x   2 M e 2 2 2 2 2 2 e M 1     1 M e 2 2 1 2 2 2 e M 2 . Y ( ( C V C V C ~ U V ",
"C C C ! Q C C C C C x   2 M M M M M m M M M B 2     1 M M M M M M M M M M 2   x V V V C C V U ..E C ",
"C U ^ ^ Q c C C C C x   2 M @ . . . o . . * M 1     1 M $ o . . . . . @ M 2   x C V V C C V C U C V ",
"c I Q Q T C c C C C x   e M . . > > > > o + M 1     1 M + o > > = 1 o o M 2   x C C C C V V C V V C ",
"C C C c c C C C C C x   4 M o > B B B B * + M 1     1 M + * B B M B = . M 4   z C C C C C C C C V V ",
"c O.>.W c C C C c C z   2 M . = B M M M = + M 1     1 M + * M M M B > . M 2 X x C V C C V T !  .R V ",
"c o.:.Y C I I I I I x   2 M . * h h h h @ + M 1     1 M + $ h h t j $ . M 2   x C C V C I ! { } R V ",
"C c C c C ^ ^ ^ ^ I x   2 M .             + M 1     1 M +             + M 2   x C V V I ^ | ..C V V ",
"C C C U ^ ..} | | T z X 2 M h r r g r g g h B 1     1 M h t r g t t t t M 4   x C V T ! | ~ U V V V ",
"C C C ^ { } } ....T x   4 B M B B B B B M M B 1     1 B B B M B B B M M B 5   x C C ! { ..U V V V V ",
"C C C } } C C C I C x   4 B B B B B B M B B B 1     1 B B B B M B B B B B 4   c C C  .} C C C C V z ",
"C C C ~ R c I x , , ,   @ 1 1 1 1 1 1 1 1 1 1 @     @ 1 1 1 1 1 1 1 1 1 1 @   , , , C R V C V c c c ",
"C C C c c c c l                                                                     l C C V V x V V "
};
