/* XPM */
static char *walls[] = {
/* columns rows colors chars-per-pixel */
"50 50 41 1 ",
"  c black",
". c #010001",
"X c #06000A",
"o c #06000C",
"O c #08000F",
"+ c #0B0314",
"@ c #2D0051",
"# c #2E0054",
"$ c #2E0055",
"% c #2F0056",
"& c #2F0058",
"* c #31005A",
"= c #33005D",
"- c #33005F",
"; c #340061",
": c #360360",
"> c #370464",
", c #380565",
"< c #3B066A",
"1 c #3C076B",
"2 c #3C006F",
"3 c #3E086F",
"4 c #3E0073",
"5 c #3F0970",
"6 c #400076",
"7 c #410077",
"8 c #400971",
"9 c #410A72",
"0 c #430B76",
"q c #410078",
"w c #420079",
"e c #44007F",
"r c #4C1C77",
"t c #4F1F79",
"y c #490584",
"u c #4B0288",
"i c #50098F",
"p c #520A93",
"a c #5A2A85",
"s c #5C2D88",
"d c #5A0BA1",
/* pixels */
"yqq=ta&&11&$*****0=**=9*****$ts**1<*@*****0=**-p7y",
"pq$X                                          X$qi",
"7$o                                            O;e",
"=o                                              +-",
"=                                                *",
"&                                                *",
"*                                                *",
"*                                                *",
"*                                                *",
"*                                                *",
"*                                                $",
"*                                                r",
"*                                                s",
"*                                                *",
"*                                                *",
"*                                                =",
"*                                                *",
"*                                                *",
"*                                                *",
"*                                                *",
"*                                                *",
"*                                                -",
"*                                                *",
"*                                                $",
"*                                                $",
"*                                                ,",
"*                                                9",
"*                                                *",
"4                                                *",
"*                                                *",
"$                                                *",
"*                                                *",
"*                                                *",
"*                                                *",
"=                                                *",
"0                                                $",
"=                                                t",
"*                                                s",
"$                                                $",
"4                                                *",
"2                                                *",
"&                                                *",
"*                                                *",
"4                                                *",
"4                                                *",
";                                                *",
"=+                                              o-",
"u0+                                            o$q",
"dp;X                                          X$q7",
"y4q=&**,3&=*$@********$*******3,***@$*******$$;q27"
};
